<svg width="16" height="21" viewBox="0 0 16 21" fill="none" xmlns="http://www.w3.org/2000/svg">
<path d="M5.55515 18.1626C5.55511 18.168 5.55475 18.1733 5.55475 18.1787C5.55475 19.5292 6.64954 20.624 8.00004 20.624C9.35054 20.624 10.4453 19.5292 10.4453 18.1787C10.4453 18.1733 10.445 18.168 10.4449 18.1626H5.55515Z" fill="#2B2B2B"/>
<path d="M15.8073 15.106L13.6065 11.8732C13.6065 10.8835 13.6065 8.46534 13.6065 7.8398C13.6065 5.11971 11.6693 2.85236 9.09941 2.3414V1.09937C9.09936 0.492238 8.60717 0 7.99999 0C7.39281 0 6.90061 0.492238 6.90061 1.09937V2.34144C4.33067 2.85245 2.39351 5.1198 2.39351 7.83984C2.39351 8.90469 2.39351 11.256 2.39351 11.8732L0.192739 15.1061C-0.0390792 15.4466 -0.0635946 15.8874 0.129026 16.2515C0.321647 16.6157 0.699794 16.8434 1.11175 16.8434H14.8882C15.3002 16.8434 15.6783 16.6156 15.871 16.2515C16.0636 15.8873 16.0391 15.4466 15.8073 15.106Z" fill="#2B2B2B"/>
</svg>
