<svg width="15" height="18" viewBox="0 0 15 18" fill="none" xmlns="http://www.w3.org/2000/svg">
<path d="M0 2.925C0 1.30956 1.36413 0 3.04688 0H8.16984C8.97787 0 9.75291 0.308169 10.3243 0.85671L14.1076 4.4887C14.679 5.03724 15 5.78122 15 6.55698V15.075C15 16.6904 13.6358 18 11.9531 18H3.04688C1.36413 18 0 16.6904 0 15.075V2.925ZM3.51562 10.8H7.5V7.875H4.92188C4.14522 7.875 3.51562 8.47944 3.51562 9.225V10.8ZM3.51562 12.15V13.275C3.51562 14.0206 4.14522 14.625 4.92188 14.625H7.5V12.15H3.51562ZM8.90625 14.625H10.0781C10.8548 14.625 11.4844 14.0206 11.4844 13.275V9.225C11.4844 8.47944 10.8548 7.875 10.0781 7.875H8.90625V14.625Z" fill="#545660"/>
</svg>
