<svg width="18" height="16" viewBox="0 0 18 16" fill="none" xmlns="http://www.w3.org/2000/svg">
<path d="M7.0452 1.77778L5.2452 3.55556H1.8V14.2222H16.2V3.55556H12.7548L10.9548 1.77778H7.0452ZM6.3 0H11.7L13.5 1.77778H17.1C17.3387 1.77778 17.5676 1.87143 17.7364 2.03813C17.9052 2.20483 18 2.43092 18 2.66667V15.1111C18 15.3469 17.9052 15.573 17.7364 15.7397C17.5676 15.9064 17.3387 16 17.1 16H0.9C0.661305 16 0.432387 15.9064 0.263604 15.7397C0.0948211 15.573 0 15.3469 0 15.1111V2.66667C0 2.43092 0.0948211 2.20483 0.263604 2.03813C0.432387 1.87143 0.661305 1.77778 0.9 1.77778H4.5L6.3 0ZM9 13.3333C7.68718 13.3333 6.42813 12.8183 5.49982 11.9014C4.57152 10.9846 4.05 9.74106 4.05 8.44444C4.05 7.14783 4.57152 5.90432 5.49982 4.98748C6.42813 4.07063 7.68718 3.55556 9 3.55556C10.3128 3.55556 11.5719 4.07063 12.5002 4.98748C13.4285 5.90432 13.95 7.14783 13.95 8.44444C13.95 9.74106 13.4285 10.9846 12.5002 11.9014C11.5719 12.8183 10.3128 13.3333 9 13.3333ZM9 11.5556C9.83543 11.5556 10.6366 11.2278 11.2274 10.6443C11.8181 10.0609 12.15 9.26956 12.15 8.44444C12.15 7.61933 11.8181 6.828 11.2274 6.24456C10.6366 5.66111 9.83543 5.33333 9 5.33333C8.16457 5.33333 7.36335 5.66111 6.77261 6.24456C6.18187 6.828 5.85 7.61933 5.85 8.44444C5.85 9.26956 6.18187 10.0609 6.77261 10.6443C7.36335 11.2278 8.16457 11.5556 9 11.5556Z" fill="white"/>
</svg>
