<svg width="24" height="24" viewBox="0 0 24 24" fill="none" xmlns="http://www.w3.org/2000/svg">
<circle cx="12" cy="12" r="12" fill="#EFF0F2"/>
<path d="M8.91267 8.15659C8.70388 7.9478 8.36537 7.9478 8.15659 8.15659C7.9478 8.36537 7.9478 8.70388 8.15659 8.91267L11.2439 12L8.15662 15.0873C7.94784 15.2961 7.94784 15.6346 8.15662 15.8434C8.36541 16.0522 8.70392 16.0522 8.9127 15.8434L12 12.7561L15.0873 15.8434C15.2961 16.0522 15.6346 16.0522 15.8434 15.8434C16.0522 15.6346 16.0522 15.2961 15.8434 15.0873L12.7561 12L15.8434 8.91267C16.0522 8.70388 16.0522 8.36537 15.8434 8.15659C15.6346 7.9478 15.2961 7.9478 15.0873 8.15659L12 11.2439L8.91267 8.15659Z" fill="#92939A"/>
</svg>
