<svg width="24" height="19" viewBox="0 0 24 19" fill="none" xmlns="http://www.w3.org/2000/svg">
<path d="M21.996 11.7C21.96 11.556 21.96 11.376 22.068 11.268C22.68 10.152 23.04 8.892 23.04 7.56C23.04 3.384 19.476 0 15.12 0C13.248 0 11.52 0.648 10.152 1.692C14.652 2.664 18 6.552 18 11.16C18 12.456 17.748 13.716 17.244 14.832C17.964 14.652 18.648 14.364 19.296 13.968C19.44 13.896 19.584 13.86 19.728 13.932L22.032 14.76C22.428 14.904 22.824 14.508 22.716 14.076L21.996 11.7Z" fill="#545660"/>
<path d="M7.92 3.60001C3.564 3.60001 0 6.98401 0 11.16C0 12.492 0.36 13.752 1.008 14.868C1.08 15.012 1.116 15.156 1.08 15.3L0.324 17.712C0.18 18.144 0.576 18.54 1.008 18.396L3.312 17.568C3.456 17.532 3.636 17.532 3.744 17.604C4.968 18.324 6.372 18.72 7.92 18.72C12.276 18.72 15.84 15.336 15.84 11.16C15.84 6.98401 12.276 3.60001 7.92 3.60001ZM3.6 12.6C2.808 12.6 2.16 11.952 2.16 11.16C2.16 10.368 2.808 9.72 3.6 9.72C4.392 9.72 5.04 10.368 5.04 11.16C5.04 11.952 4.392 12.6 3.6 12.6ZM7.92 12.6C7.128 12.6 6.48 11.952 6.48 11.16C6.48 10.368 7.128 9.72 7.92 9.72C8.712 9.72 9.36 10.368 9.36 11.16C9.36 11.952 8.712 12.6 7.92 12.6ZM12.24 12.6C11.448 12.6 10.8 11.952 10.8 11.16C10.8 10.368 11.448 9.72 12.24 9.72C13.032 9.72 13.68 10.368 13.68 11.16C13.68 11.952 13.032 12.6 12.24 12.6Z" fill="#545660"/>
</svg>
