<svg width="8" height="8" viewBox="0 0 8 8" fill="none" xmlns="http://www.w3.org/2000/svg">
<path d="M0.912666 0.156588C0.703883 -0.052196 0.365374 -0.052196 0.156591 0.156588C-0.052197 0.365372 -0.052197 0.703884 0.156591 0.912668L3.24393 4.00001L0.156623 7.08734C-0.0521649 7.29612 -0.0521649 7.63465 0.156623 7.84342C0.365406 8.05219 0.703915 8.05219 0.912698 7.84342L4 4.75609L7.08731 7.84342C7.29608 8.05219 7.63461 8.05219 7.84338 7.84342C8.05215 7.63465 8.05215 7.29612 7.84338 7.08734L4.75607 4.00001L7.84338 0.912668C8.05221 0.703884 8.05221 0.365372 7.84338 0.156588C7.63461 -0.052196 7.29614 -0.052196 7.08731 0.156588L4 3.24394L0.912666 0.156588Z" fill="#92939A"/>
</svg>
