<svg width="500" height="500" viewBox="0 0 500 500" fill="none" xmlns="http://www.w3.org/2000/svg">
<rect width="500" height="500" fill="#F2F3FA"/>
<g filter="url(#filter0_i_93_60)">
<path d="M298.702 243.232C289.432 247.646 281.874 261.049 273.033 252.205C267.659 246.373 261.285 237.095 253.961 226.601C246.041 215.318 235.945 205.618 224.066 216.701C210.803 229.176 201.694 263.026 200.904 280.447L326.217 280.49C323.35 270.253 312.212 236.799 298.702 243.232Z" fill="#969DB2" fill-opacity="0.5"/>
<path d="M298.117 223.575C306.627 223.575 313.526 216.676 313.526 208.167C313.526 199.657 306.627 192.758 298.117 192.758C289.607 192.758 282.709 199.657 282.709 208.167C282.709 216.676 289.607 223.575 298.117 223.575Z" fill="#969DB2" fill-opacity="0.5"/>
<path d="M345.088 173H182.037C179.509 173 177.456 175.051 177.456 177.579V200.741H154.581C152.053 200.743 150 202.792 150 205.32V323.406C150 325.936 152.053 327.985 154.581 327.985H317.632C320.16 327.985 322.213 325.932 322.213 323.406V300.248H345.09C347.616 300.248 349.671 298.197 349.671 295.669V177.579C349.669 175.053 347.614 173 345.088 173ZM309.917 315.693H162.296V213.038H177.456V284.411C175.156 293.299 173.738 301.84 173.45 308.194L298.765 308.235C298.215 306.277 297.358 303.463 296.243 300.248H309.917V315.693ZM337.373 287.951H189.752V185.298H337.373V287.951Z" fill="#969DB2" fill-opacity="0.5"/>
</g>
<g filter="url(#filter1_d_93_60)">
<path d="M172.67 249.947L177.608 225H173.493L168.555 249.947L173.493 274.895H177.608L172.67 249.947Z" fill="white" fill-opacity="0.19"/>
<path d="M155.526 249.947L168.693 225H164.167L151 249.947L164.167 274.895H168.693L155.526 249.947ZM192.009 249.947L187.071 225H182.957L187.894 249.947L182.957 274.895H187.071L192.009 249.947Z" fill="white" fill-opacity="0.19"/>
<path d="M209.564 249.947L196.398 225H191.871L205.038 249.947L191.871 274.895H196.398L209.564 249.947ZM331.905 253.135L336.43 241.632L340.956 253.135H331.905ZM330.67 256.461H342.328L344.523 262.144H348.5L338.762 237.889H334.373L324.635 262.144H328.476L330.67 256.461ZM319.835 237.889H316.132V262.144H319.835V237.889ZM308.314 262.144V237.889H303.102L295.422 256.6L287.741 237.889H282.667V262.144H286.37V243.988H286.507L293.913 262.144H297.068L304.611 243.988V262.144H308.314ZM260.722 237.889V262.144H276.22V258.679H264.562V251.472H275.123V248.007H264.562V241.354H276.22V237.889H260.722ZM250.573 250.086C250.573 251.749 250.162 253.412 249.201 254.798C248.653 255.491 248.104 256.184 247.418 256.739C245.773 257.986 243.578 258.679 241.521 258.54H237.818V241.493H241.658C243.715 241.493 245.91 242.047 247.556 243.433C249.476 245.097 250.573 247.453 250.573 250.086ZM254.55 249.947C254.55 247.453 253.727 245.097 252.493 243.018C251.396 241.493 250.024 240.107 248.378 239.275C246.321 238.305 244.127 237.751 241.795 237.751H234.252V262.005H241.932C244.949 262.144 247.83 261.174 250.299 259.372C252.905 257.154 254.55 253.689 254.55 249.947ZM226.434 237.889H222.731V262.144H226.434V237.889Z" fill="white" fill-opacity="0.19"/>
</g>
<defs>
<filter id="filter0_i_93_60" x="150" y="173" width="199.671" height="158.985" filterUnits="userSpaceOnUse" color-interpolation-filters="sRGB">
<feFlood flood-opacity="0" result="BackgroundImageFix"/>
<feBlend mode="normal" in="SourceGraphic" in2="BackgroundImageFix" result="shape"/>
<feColorMatrix in="SourceAlpha" type="matrix" values="0 0 0 0 0 0 0 0 0 0 0 0 0 0 0 0 0 0 127 0" result="hardAlpha"/>
<feOffset dy="4"/>
<feGaussianBlur stdDeviation="2"/>
<feComposite in2="hardAlpha" operator="arithmetic" k2="-1" k3="1"/>
<feColorMatrix type="matrix" values="0 0 0 0 0 0 0 0 0 0 0 0 0 0 0 0 0 0 0.07 0"/>
<feBlend mode="normal" in2="shape" result="effect1_innerShadow_93_60"/>
</filter>
<filter id="filter1_d_93_60" x="148" y="222" width="203.5" height="55.8948" filterUnits="userSpaceOnUse" color-interpolation-filters="sRGB">
<feFlood flood-opacity="0" result="BackgroundImageFix"/>
<feColorMatrix in="SourceAlpha" type="matrix" values="0 0 0 0 0 0 0 0 0 0 0 0 0 0 0 0 0 0 127 0" result="hardAlpha"/>
<feOffset/>
<feGaussianBlur stdDeviation="1.5"/>
<feComposite in2="hardAlpha" operator="out"/>
<feColorMatrix type="matrix" values="0 0 0 0 0 0 0 0 0 0 0 0 0 0 0 0 0 0 0.24 0"/>
<feBlend mode="normal" in2="BackgroundImageFix" result="effect1_dropShadow_93_60"/>
<feBlend mode="normal" in="SourceGraphic" in2="effect1_dropShadow_93_60" result="shape"/>
</filter>
</defs>
</svg>
