<svg width="16" height="17" viewBox="0 0 16 17" fill="none" xmlns="http://www.w3.org/2000/svg">
<path d="M15.8144 9.41971L15.518 9.0138C15.2731 8.67877 15.2699 8.22454 15.5083 7.88306L15.7982 7.47393C16.1333 6.99715 15.9787 6.33674 15.4632 6.05969L15.0219 5.8213C14.6546 5.62479 14.4549 5.21566 14.5225 4.80653L14.6063 4.31042C14.7029 3.737 14.2745 3.20545 13.6914 3.1829L13.1888 3.16035C12.7733 3.14424 12.4157 2.86075 12.2997 2.46129L12.1612 1.97806C12.0001 1.41752 11.3848 1.12759 10.8468 1.35954L10.3861 1.55927C10.0028 1.72357 9.56144 1.62692 9.28117 1.31444L8.94614 0.940744C8.55634 0.505842 7.8766 0.512285 7.49324 0.950408L7.16465 1.33054C6.89083 1.64303 6.44948 1.74934 6.06612 1.59149L5.60223 1.40142C5.06424 1.17913 4.45216 1.47873 4.29753 2.04249L4.16545 2.52572C4.05914 2.93163 3.70799 3.21834 3.29242 3.24089L2.78987 3.26988C2.20678 3.3021 1.78799 3.84009 1.89429 4.41029L1.9845 4.90318C2.05859 5.31231 1.8653 5.72466 1.50127 5.92439L1.06315 6.16923C0.554155 6.45272 0.405966 7.11634 0.750666 7.58668L1.04704 7.99259C1.29188 8.32763 1.2951 8.78186 1.05671 9.12333L0.766773 9.53246C0.431738 10.0092 0.58637 10.6697 1.10181 10.9467L1.54315 11.1851C1.9104 11.3816 2.11013 11.7907 2.04248 12.1999L1.9555 12.6927C1.85886 13.2662 2.28732 13.7977 2.87041 13.8203L3.37296 13.8428C3.78853 13.8589 4.14612 14.1424 4.26209 14.5419L4.40061 15.0251C4.56169 15.5856 5.17699 15.8756 5.71498 15.6436L6.17566 15.4439C6.55901 15.2796 7.00036 15.3763 7.28063 15.6855L7.61566 16.0592C8.00546 16.4941 8.6852 16.4877 9.06855 16.0495L9.39715 15.6694C9.67097 15.3569 10.1123 15.2506 10.4957 15.4085L10.9596 15.5985C11.4976 15.8208 12.1096 15.5212 12.2643 14.9575L12.3964 14.4742C12.5059 14.0748 12.8602 13.7881 13.2758 13.7623L13.7784 13.7333C14.3615 13.7011 14.7803 13.1631 14.6739 12.5929L14.5837 12.1C14.5097 11.6909 14.7029 11.2785 15.067 11.0788L15.5051 10.8339C16.0109 10.5569 16.1558 9.89005 15.8144 9.41971ZM8.28251 13.5915C5.47337 13.5915 3.19578 11.3139 3.19578 8.50481C3.19578 5.69567 5.47337 3.41807 8.28251 3.41807C11.0916 3.41807 13.3692 5.69567 13.3692 8.50481C13.3692 11.3139 11.0916 13.5915 8.28251 13.5915Z" fill="#2EC057"/>
<path d="M7.63176 8.63999L7.18075 8.18576C6.91337 7.91515 6.47524 7.91515 6.20464 8.18254C5.93404 8.44992 5.93403 8.88805 6.20142 9.15865L6.65243 9.61289L7.15498 10.1154C7.41592 10.3796 7.84115 10.3796 8.10532 10.1187L8.60787 9.61933L10.3604 7.8765C10.631 7.60911 10.631 7.17099 10.3636 6.90038C10.0962 6.62977 9.65807 6.62977 9.38747 6.89716L7.63176 8.63999Z" fill="#2EC057"/>
</svg>
