<svg width="8" height="14" viewBox="0 0 8 14" fill="none" xmlns="http://www.w3.org/2000/svg">
<path d="M7.70679 0.292787C7.89426 0.480314 7.99957 0.734622 7.99957 0.999786C7.99957 1.26495 7.89426 1.51926 7.70679 1.70679L2.41379 6.99979L7.70679 12.2928C7.88894 12.4814 7.98974 12.734 7.98746 12.9962C7.98518 13.2584 7.88001 13.5092 7.6946 13.6946C7.5092 13.88 7.25838 13.9852 6.99619 13.9875C6.73399 13.9897 6.48139 13.8889 6.29279 13.7068L0.292787 7.70679C0.105316 7.51926 0 7.26495 0 6.99979C0 6.73462 0.105316 6.48031 0.292787 6.29279L6.29279 0.292787C6.48031 0.105316 6.73462 0 6.99979 0C7.26495 0 7.51926 0.105316 7.70679 0.292787Z" fill="#2B2B2B"/>
</svg>
