<svg width="13" height="8" viewBox="0 0 13 8" fill="none" xmlns="http://www.w3.org/2000/svg">
<path d="M0.419109 2.92227C0.186467 2.91824 0 2.72853 0 2.49583V0.426502C0 0.190959 0.190959 0 0.426501 0H12.5735C12.809 0 13 0.190959 13 0.426502V2.49555C13 2.60917 12.9546 2.71812 12.874 2.79819C12.7934 2.87823 12.6849 2.92293 12.5705 2.92205C12.566 2.92199 12.5615 2.92191 12.5569 2.92176C12.0527 2.92475 11.6435 3.33587 11.6435 3.84076C11.6435 4.34585 12.0531 4.75706 12.5575 4.75973C12.5617 4.75962 12.5659 4.75953 12.5702 4.75947C12.5713 4.75947 12.5724 4.75947 12.5735 4.75947C12.686 4.75947 12.794 4.80391 12.8739 4.88324C12.9546 4.96331 13 5.0723 13 5.18597V7.25502C13 7.49056 12.809 7.68152 12.5735 7.68152H0.426501C0.190959 7.68152 0 7.49056 0 7.25502V5.18569C0 4.95302 0.186496 4.76331 0.419109 4.75925C0.916894 4.75063 1.32184 4.3386 1.32184 3.84076C1.32184 3.34292 0.916894 2.93086 0.419109 2.92227ZM2.1556 5.88538C2.1556 6.12092 2.34656 6.31188 2.5821 6.31188H10.4179C10.6534 6.31188 10.8444 6.12092 10.8444 5.88538V1.79608C10.8444 1.56054 10.6534 1.36958 10.4179 1.36958H2.5821C2.34656 1.36958 2.1556 1.56054 2.1556 1.79608V5.88538Z" fill="#999CAB"/>
<path d="M5.45919 2.22266H9.99137V5.45895H5.45919V2.22266Z" fill="#999CAB"/>
<path d="M3.0086 2.22266H4.60622V5.45895H3.0086V2.22266Z" fill="#999CAB"/>
</svg>
