<svg width="18" height="12" viewBox="0 0 18 12" fill="none" xmlns="http://www.w3.org/2000/svg">
<path d="M12.1891 7.72826C13.6957 7.72826 14.9283 6.49565 14.9283 4.98913C14.9283 3.48261 13.6957 2.25 12.1891 2.25C10.6826 2.25 9.45 3.48261 9.45 4.98913C9.45 6.49565 10.6826 7.72826 12.1891 7.72826ZM12.1891 3.42391C13.05 3.42391 13.7543 4.12826 13.7543 4.98913C13.7543 5.85 13.05 6.55435 12.1891 6.55435C11.3283 6.55435 10.6239 5.85 10.6239 4.98913C10.6239 4.12826 11.3283 3.42391 12.1891 3.42391ZM3.07174 3.71739C3.07174 3.38478 3.32609 3.13043 3.6587 3.13043H7.06304C7.39565 3.13043 7.65 3.38478 7.65 3.71739C7.65 4.05 7.39565 4.30435 7.06304 4.30435H3.6587C3.32609 4.30435 3.07174 4.05 3.07174 3.71739ZM7.06304 6.45652H3.6587C3.32609 6.45652 3.07174 6.20217 3.07174 5.86957C3.07174 5.53696 3.32609 5.28261 3.6587 5.28261H7.06304C7.39565 5.28261 7.65 5.53696 7.65 5.86957C7.65 6.20217 7.39565 6.45652 7.06304 6.45652ZM6.20217 8.02174C6.20217 8.35435 5.94783 8.6087 5.61522 8.6087H3.6587C3.32609 8.6087 3.07174 8.35435 3.07174 8.02174C3.07174 7.68913 3.32609 7.43478 3.6587 7.43478H5.63478C5.94783 7.43478 6.20217 7.68913 6.20217 8.02174ZM18 1.2913C18 0.586957 17.413 0 16.7087 0H1.2913C0.586957 0 0 0.586957 0 1.2913V10.4478C0 11.1522 0.586957 11.7391 1.2913 11.7391H16.7087C17.413 11.7391 18 11.1522 18 10.4478V1.2913ZM1.56522 1.56522H16.4348V9.72391C15.5935 8.90217 14.1457 8.35435 13.5783 8.1587C13.4609 8.11957 13.3239 8.11957 13.187 8.1587L12.1891 8.51087L11.1913 8.1587C11.0739 8.11957 10.937 8.13913 10.8 8.17826C10.1543 8.39348 8.31522 9 7.61087 10.1739H1.56522V1.56522ZM9.33261 10.1739C9.78261 9.78261 10.3696 9.58696 10.9957 9.35217L11.9935 9.70435C12.1109 9.74348 12.2674 9.74348 12.3848 9.70435L13.3826 9.37174C14.0087 9.60652 14.5957 9.80217 15.0457 10.1935H9.33261V10.1739Z" fill="black"/>
</svg>
