<svg width="151" height="38" viewBox="0 0 151 38" fill="none" xmlns="http://www.w3.org/2000/svg">
<path d="M17.1776 0L13.4216 18.8803L17.1776 37.7356H20.3577L16.6017 18.8803L20.3577 0H17.1776Z" fill="#420098"/>
<path d="M10.0662 0L0 18.8803L10.0411 37.7356H13.5217L3.45555 18.8803L13.5217 0H10.0662Z" fill="#420098"/>
<path d="M24.3892 0L28.1703 18.8803L24.4143 37.7356H27.5944L31.3504 18.8803L27.5693 0H24.3892Z" fill="#420098"/>
<path d="M31.2252 0L41.3164 18.8803L31.2502 37.7356H34.7308L44.772 18.8803L34.7058 0H31.2252Z" fill="#420098"/>
<path d="M137.596 16.4265L141.077 7.71245L144.582 16.4265H137.596ZM136.595 18.9806H145.559L147.237 23.2875H150.241L142.805 4.93298H139.399L131.937 23.2875H134.892L136.595 18.9806ZM128.331 4.95802H125.452V23.3125H128.331V4.95802ZM119.517 23.2875V4.93298H115.511L109.676 19.1308H109.651L103.717 4.93298H99.8104V23.2875H102.64V9.59047H102.715L108.424 23.2875H110.878L116.612 9.54039H116.663V23.2875H119.517ZM83.0335 4.95802V23.3125H94.8525V20.6833H85.888V15.2746H93.976V12.6454H85.888V7.56221H94.7773V4.93298H83.0335V4.95802ZM75.296 14.1478C75.296 15.3998 74.9955 16.6017 74.2944 17.7536C73.9188 18.3045 73.4681 18.8053 72.9673 19.231C71.9406 20.0573 70.3129 20.6332 68.46 20.6332H65.5803V7.61229H68.485C70.338 7.61229 71.9657 8.18822 72.9923 9.06462C74.5448 10.4418 75.3461 12.42 75.296 14.1478ZM78.3259 14.1478C78.3259 12.4951 77.8251 10.6171 76.7233 8.93942C75.9971 7.83765 74.8954 6.83604 73.5682 6.08483C72.2662 5.38371 70.4882 4.95802 68.5351 4.95802H62.7257V23.3125H68.5852C71.2144 23.3125 73.4681 22.5112 74.9455 21.3093C77.1991 19.4563 78.376 16.6769 78.3259 14.1478ZM56.7662 4.95802H53.8865V23.3125H56.7662V4.95802Z" fill="#420098"/>
<path d="M56.6583 35.193C56.2719 35.193 55.9165 35.1219 55.5919 34.9795C55.2673 34.8316 54.9865 34.6263 54.7496 34.3635C54.5126 34.0952 54.3272 33.7803 54.1932 33.4189C54.0644 33.0575 54 32.6632 54 32.2361C54 31.8145 54.0644 31.4284 54.1932 31.078C54.3272 30.7221 54.5152 30.4127 54.7573 30.1499C54.9995 29.8816 55.2802 29.6763 55.5996 29.5339C55.9191 29.3915 56.2693 29.3203 56.6506 29.3203C56.903 29.3203 57.1529 29.3642 57.4002 29.4517C57.6475 29.5339 57.8742 29.6489 58.0802 29.7967C58.2914 29.9446 58.464 30.1143 58.598 30.306L58.1807 30.7659C58.0519 30.6016 57.9025 30.4592 57.7325 30.3388C57.5676 30.2184 57.3924 30.1253 57.207 30.0595C57.0215 29.9938 56.836 29.961 56.6506 29.961C56.3621 29.961 56.0916 30.0185 55.8392 30.1335C55.5919 30.243 55.3781 30.3991 55.1978 30.6016C55.0175 30.8042 54.8758 31.0452 54.7728 31.3244C54.6749 31.6037 54.6259 31.9076 54.6259 32.2361C54.6259 32.5757 54.6749 32.8878 54.7728 33.1725C54.8758 33.4572 55.02 33.7036 55.2055 33.9117C55.3961 34.1143 55.6177 34.2731 55.8701 34.3881C56.1277 34.4976 56.4136 34.5524 56.7279 34.5524C56.9133 34.5524 57.0988 34.525 57.2843 34.4702C57.4697 34.41 57.6397 34.3278 57.7943 34.2238C57.9488 34.1198 58.0802 34.0021 58.1884 33.8706L58.4975 34.4045C58.379 34.5578 58.2193 34.6948 58.0184 34.8152C57.8226 34.9302 57.6062 35.0233 57.3693 35.0945C57.1323 35.1602 56.8953 35.193 56.6583 35.193ZM61.9655 35.193C61.5637 35.193 61.2056 35.0972 60.8914 34.9055C60.5823 34.7139 60.3376 34.4483 60.1573 34.1088C59.9821 33.7693 59.8945 33.3833 59.8945 32.9507C59.8945 32.5236 59.9821 32.143 60.1573 31.809C60.3376 31.475 60.5823 31.2122 60.8914 31.0205C61.2056 30.8289 61.5637 30.7331 61.9655 30.7331C62.3622 30.7331 62.7151 30.8289 63.0242 31.0205C63.3385 31.2122 63.5832 31.475 63.7583 31.809C63.9387 32.143 64.0288 32.5236 64.0288 32.9507C64.0288 33.3833 63.9387 33.7693 63.7583 34.1088C63.5832 34.4483 63.3385 34.7139 63.0242 34.9055C62.7151 35.0972 62.3622 35.193 61.9655 35.193ZM61.9655 34.6099C62.2489 34.6099 62.5013 34.5387 62.7228 34.3963C62.9443 34.2485 63.1169 34.0513 63.2406 33.8049C63.3642 33.5531 63.4261 33.2683 63.4261 32.9507C63.4261 32.6332 63.3642 32.3511 63.2406 32.1047C63.1169 31.8583 62.9443 31.6666 62.7228 31.5298C62.5013 31.3874 62.2489 31.3162 61.9655 31.3162C61.6822 31.3162 61.4272 31.3874 61.2005 31.5298C60.979 31.6666 60.8038 31.8611 60.675 32.1129C60.5514 32.3593 60.4921 32.6386 60.4973 32.9507C60.4921 33.2683 60.5514 33.5531 60.675 33.8049C60.8038 34.0513 60.979 34.2485 61.2005 34.3963C61.4272 34.5387 61.6822 34.6099 61.9655 34.6099ZM65.6471 35.1109V30.8234H66.219L66.2422 31.7187L66.1494 31.7598C66.201 31.5736 66.3014 31.4038 66.4508 31.2505C66.6002 31.0972 66.778 30.974 66.984 30.8809C67.1953 30.7823 67.4116 30.7331 67.6331 30.7331C67.932 30.7331 68.1818 30.796 68.3827 30.922C68.5836 31.0479 68.7357 31.2423 68.8387 31.5051C68.9417 31.768 68.9932 32.102 68.9932 32.5072V35.1109H68.4059V32.54C68.4059 32.2553 68.3699 32.0226 68.2977 31.8419C68.2308 31.6557 68.1252 31.5188 67.9809 31.4312C67.8367 31.3436 67.6589 31.3026 67.4477 31.308C67.2725 31.308 67.1103 31.3409 66.9608 31.4066C66.8115 31.4668 66.6826 31.5517 66.5744 31.6612C66.4663 31.7707 66.3813 31.8966 66.3194 32.039C66.2576 32.1814 66.2267 32.3347 66.2267 32.499V35.1109H65.9408C65.9047 35.1109 65.8635 35.1109 65.8171 35.1109C65.7708 35.1109 65.7141 35.1109 65.6471 35.1109ZM70.8724 35.1109V30.8234H71.4441L71.4673 31.7187L71.3746 31.7598C71.4259 31.5736 71.5263 31.4038 71.676 31.2505C71.8256 31.0972 72.0033 30.974 72.2092 30.8809C72.4206 30.7823 72.637 30.7331 72.8583 30.7331C73.1569 30.7331 73.407 30.796 73.6079 30.922C73.8088 31.0479 73.9605 31.2423 74.0638 31.5051C74.1671 31.768 74.2184 32.102 74.2184 32.5072V35.1109H73.6311V32.54C73.6311 32.2553 73.5952 32.0226 73.5229 31.8419C73.4561 31.6557 73.3501 31.5188 73.206 31.4312C73.062 31.3436 72.8843 31.3026 72.6728 31.308C72.4979 31.308 72.3356 31.3409 72.186 31.4066C72.0364 31.4668 71.9078 31.5517 71.7996 31.6612C71.6914 31.7707 71.6064 31.8966 71.5446 32.039C71.4828 32.1814 71.4519 32.3347 71.4519 32.499V35.1109H71.166C71.13 35.1109 71.0887 35.1109 71.0424 35.1109C70.996 35.1109 70.9394 35.1109 70.8724 35.1109ZM77.875 35.193C77.4731 35.193 77.1148 35.0999 76.8008 34.9138C76.4917 34.7276 76.2493 34.4675 76.0744 34.1335C75.8995 33.7995 75.8117 33.4161 75.8117 32.9836C75.8117 32.6496 75.8608 32.3484 75.9585 32.0801C76.0561 31.8063 76.1931 31.5681 76.3681 31.3655C76.5486 31.1629 76.7622 31.0069 77.0095 30.8973C77.2567 30.7823 77.5244 30.7248 77.8131 30.7248C78.0864 30.7248 78.3337 30.7769 78.555 30.8809C78.7819 30.9849 78.9751 31.1301 79.1346 31.3162C79.2997 31.4969 79.4233 31.7132 79.5055 31.9651C79.5877 32.2169 79.6242 32.4935 79.6137 32.7947L79.6059 33.0821H76.2444L76.1594 32.5647H79.1655L79.0264 32.7043V32.5072C79.0158 32.3101 78.9617 32.1212 78.8641 31.9405C78.7664 31.7543 78.6273 31.6037 78.4468 31.4887C78.2719 31.3737 78.0604 31.3162 77.8131 31.3162C77.5244 31.3162 77.275 31.3792 77.0636 31.5051C76.8521 31.6256 76.6898 31.8063 76.5767 32.0472C76.4636 32.2882 76.4067 32.5866 76.4067 32.9425C76.4067 33.282 76.4685 33.5777 76.5922 33.8296C76.7158 34.076 76.8907 34.2677 77.1176 34.4045C77.3495 34.5414 77.6277 34.6099 77.9522 34.6099C78.1426 34.6099 78.3309 34.577 78.5163 34.5113C78.7067 34.4401 78.9154 34.3032 79.1423 34.1006L79.4437 34.5441C79.3249 34.6701 79.1837 34.7823 79.0186 34.8809C78.8536 34.974 78.6737 35.0506 78.4777 35.1109C78.2817 35.1656 78.0808 35.193 77.875 35.193ZM82.9099 35.193C82.5284 35.193 82.1884 35.0972 81.8898 34.9055C81.5906 34.7084 81.3538 34.4428 81.1789 34.1088C81.0089 33.7693 80.9239 33.386 80.9239 32.9589C80.9239 32.5318 81.0089 32.1512 81.1789 31.8172C81.3538 31.4777 81.5906 31.2122 81.8898 31.0205C82.1884 30.8289 82.5312 30.7331 82.9176 30.7331C83.2625 30.7331 83.5766 30.807 83.8604 30.9548C84.1435 31.0972 84.3704 31.297 84.5404 31.5544L84.2004 31.9979C84.102 31.8611 83.984 31.7406 83.8449 31.6365C83.7107 31.5325 83.5639 31.4531 83.4044 31.3984C83.2499 31.3381 83.0953 31.308 82.9408 31.308C82.6675 31.308 82.423 31.3819 82.2067 31.5298C81.9903 31.6722 81.8175 31.8665 81.6889 32.1129C81.5653 32.3593 81.5034 32.6414 81.5034 32.9589C81.5034 33.2765 81.5653 33.5613 81.6889 33.8131C81.8175 34.0595 81.9903 34.2539 82.2067 34.3963C82.423 34.5387 82.6647 34.6099 82.9331 34.6099C83.0876 34.6099 83.2394 34.5852 83.389 34.5359C83.5379 34.4812 83.6798 34.4045 83.814 34.306C83.9475 34.2074 84.0711 34.0842 84.1849 33.9363L84.525 34.3799C84.3493 34.6263 84.1154 34.8234 83.8217 34.9713C83.5281 35.1191 83.2239 35.193 82.9099 35.193ZM86.6065 35.1109V29.6982H87.1861V35.1109H86.6065ZM85.6946 31.4148V30.8234H88.2061V31.4148H85.6946ZM89.8451 35.1109V30.8234H90.4247V35.1109H89.8451ZM90.131 29.8953C89.987 29.8953 89.876 29.857 89.7987 29.7803C89.7264 29.6982 89.6905 29.5886 89.6905 29.4517C89.6905 29.3149 89.7292 29.2053 89.8065 29.1232C89.8837 29.0411 89.9919 29 90.131 29C90.2701 29 90.3783 29.0411 90.4556 29.1232C90.5329 29.1999 90.5715 29.3094 90.5715 29.4517C90.5715 29.5832 90.5329 29.6899 90.4556 29.7721C90.3783 29.8542 90.2701 29.8953 90.131 29.8953ZM93.7153 35.1109L92.0152 30.8234H92.6566L94.0012 34.3306L93.8466 34.4209L95.3226 30.8234H95.9408L94.1325 35.1109H93.7153ZM97.5482 35.1109V30.8234H98.1277V35.1109H97.5482ZM97.8341 29.8953C97.6901 29.8953 97.5791 29.857 97.5018 29.7803C97.4301 29.6982 97.3936 29.5886 97.3936 29.4517C97.3936 29.3149 97.4323 29.2053 97.5095 29.1232C97.5868 29.0411 97.695 29 97.8341 29C97.9732 29 98.0814 29.0411 98.1587 29.1232C98.2359 29.1999 98.2746 29.3094 98.2746 29.4517C98.2746 29.5832 98.2359 29.6899 98.1587 29.7721C98.0814 29.8542 97.9732 29.8953 97.8341 29.8953ZM100.723 35.1109V29.6982H101.302V35.1109H100.723ZM99.811 31.4148V30.8234H102.322V31.4148H99.811ZM104.487 37L105.267 34.9795L105.321 35.5626L103.297 30.8234H103.954L105.337 34.1088C105.378 34.1964 105.42 34.3005 105.461 34.4209C105.502 34.5359 105.541 34.6509 105.576 34.7659L105.36 34.7413C105.397 34.6482 105.43 34.5524 105.461 34.4538C105.497 34.3552 105.53 34.2594 105.561 34.1663L106.774 30.8234H107.439L105.808 35.1109L105.113 37H104.487ZM115.608 35.1109V29.3614H116.21V35.1109H115.608ZM111.991 35.1109V29.3614H112.594V35.1109H111.991ZM112.285 32.5565V31.9322H115.863V32.5565H112.285ZM119.773 35.193C119.464 35.193 119.201 35.1273 118.985 34.9959C118.773 34.859 118.611 34.6619 118.498 34.4045C118.39 34.1471 118.336 33.8268 118.336 33.4435V30.8234H118.923V33.3203C118.923 33.6106 118.959 33.8542 119.031 34.0513C119.108 34.243 119.221 34.3881 119.371 34.4867C119.526 34.5852 119.713 34.6345 119.935 34.6345C120.105 34.6345 120.262 34.6044 120.407 34.5441C120.551 34.4784 120.677 34.3909 120.785 34.2813C120.893 34.1718 120.978 34.0431 121.04 33.8953C121.102 33.7474 121.133 33.5914 121.133 33.4271V30.8234H121.713V35.1109H121.141L121.118 34.2074L121.21 34.1581C121.148 34.3498 121.045 34.525 120.901 34.6838C120.756 34.8371 120.584 34.9603 120.383 35.0534C120.187 35.1465 119.984 35.193 119.773 35.193ZM125.661 35.193C125.471 35.193 125.286 35.1629 125.105 35.1027C124.924 35.037 124.76 34.9494 124.61 34.8398C124.466 34.7303 124.343 34.6044 124.24 34.462C124.142 34.3196 124.074 34.1718 124.039 34.0185L124.209 34.0267L124.185 35.1027H123.614V29.0329H124.193V31.8501L124.077 31.883C124.113 31.7297 124.178 31.5845 124.27 31.4476C124.368 31.3052 124.49 31.182 124.634 31.078C124.778 30.9685 124.935 30.8837 125.105 30.8234C125.28 30.7631 125.46 30.7331 125.646 30.7331C126.006 30.7331 126.329 30.8289 126.612 31.0205C126.901 31.2122 127.13 31.475 127.3 31.809C127.47 32.143 127.555 32.5264 127.555 32.9589C127.555 33.3915 127.472 33.7775 127.307 34.117C127.142 34.451 126.916 34.7139 126.627 34.9055C126.344 35.0972 126.022 35.193 125.661 35.193ZM125.569 34.6099C125.842 34.6099 126.084 34.5387 126.295 34.3963C126.507 34.2485 126.671 34.0513 126.79 33.8049C126.913 33.5531 126.975 33.271 126.975 32.9589C126.975 32.6414 126.913 32.3593 126.79 32.1129C126.671 31.8665 126.507 31.6722 126.295 31.5298C126.084 31.3874 125.842 31.3162 125.569 31.3162C125.295 31.3162 125.054 31.3874 124.842 31.5298C124.631 31.6722 124.464 31.8665 124.34 32.1129C124.221 32.3593 124.162 32.6414 124.162 32.9589C124.162 33.2765 124.221 33.5613 124.34 33.8131C124.464 34.0595 124.631 34.2539 124.842 34.3963C125.054 34.5387 125.295 34.6099 125.569 34.6099ZM133.709 36.6386C133.081 36.2225 132.602 35.7023 132.272 35.078C131.942 34.4538 131.777 33.7584 131.777 32.9918C131.777 32.2307 131.942 31.538 132.272 30.9138C132.606 30.2841 133.088 29.7611 133.717 29.345L134.034 29.731C133.482 30.1417 133.06 30.6263 132.767 31.1848C132.478 31.7379 132.334 32.3402 132.334 32.9918C132.334 33.6434 132.478 34.2485 132.767 34.807C133.06 35.3601 133.482 35.8419 134.034 36.2526L133.709 36.6386ZM135.492 35.1109V34.5135H136.127V31.5268H135.492V30.9294H137.369V31.5268H136.734V34.5135H137.369V35.1109H135.492ZM140.398 35.1706C140.125 35.1706 139.874 35.1189 139.645 35.0153C139.417 34.9117 139.218 34.7644 139.049 34.5733C138.881 34.3782 138.75 34.1492 138.656 33.8863C138.566 33.6235 138.521 33.3347 138.521 33.0202C138.521 32.7215 138.57 32.4447 138.667 32.1898C138.768 31.931 138.907 31.704 139.083 31.5089C139.259 31.3138 139.464 31.1624 139.696 31.0549C139.928 30.9474 140.179 30.8936 140.449 30.8936C140.64 30.8936 140.825 30.9255 141.005 30.9892C141.189 31.0489 141.353 31.1346 141.5 31.246C141.65 31.3536 141.771 31.477 141.865 31.6164L141.46 32.0644C141.352 31.9489 141.241 31.8533 141.129 31.7777C141.02 31.698 140.908 31.6383 140.791 31.5985C140.679 31.5587 140.565 31.5387 140.449 31.5387C140.265 31.5387 140.093 31.5766 139.932 31.6522C139.774 31.7239 139.636 31.8255 139.516 31.9569C139.4 32.0883 139.308 32.2456 139.24 32.4288C139.173 32.608 139.139 32.8051 139.139 33.0202C139.139 33.2472 139.171 33.4542 139.235 33.6414C139.302 33.8246 139.396 33.9819 139.516 34.1133C139.636 34.2447 139.778 34.3463 139.943 34.418C140.111 34.4857 140.297 34.5195 140.499 34.5195C140.623 34.5195 140.745 34.5016 140.865 34.4657C140.985 34.4299 141.097 34.3782 141.202 34.3104C141.307 34.2427 141.403 34.1631 141.488 34.0715L141.792 34.5972C141.706 34.7047 141.588 34.8023 141.438 34.8899C141.292 34.9774 141.127 35.0472 140.943 35.0989C140.763 35.1467 140.582 35.1706 140.398 35.1706ZM145.747 35.1109V30.9294H146.354V35.1109H145.747ZM143.179 35.1109V30.9294H143.786V35.1109H143.179ZM143.443 33.3368V32.7155H146.017V33.3368H143.443ZM148.06 36.6386L147.744 36.2526C148.294 35.8419 148.714 35.3601 149.003 34.807C149.291 34.2485 149.436 33.6434 149.436 32.9918C149.436 32.3402 149.291 31.7379 149.003 31.1848C148.714 30.6263 148.294 30.1417 147.744 29.731L148.068 29.345C148.696 29.7611 149.175 30.2813 149.505 30.9055C149.835 31.5298 150 32.2252 150 32.9918C150 33.7529 149.832 34.4483 149.498 35.078C149.168 35.7023 148.688 36.2225 148.06 36.6386Z" fill="#420098"/>
</svg>
