<svg width="119" height="31" viewBox="0 0 119 31" fill="none" xmlns="http://www.w3.org/2000/svg">
<path d="M14.2774 0.934692L11.3214 15.7937L14.2774 30.633H16.7802L13.8242 15.7937L16.7802 0.934692H14.2774Z" fill="#420098"/>
<path d="M8.68069 0.934692L0.758514 15.7937L8.66099 30.633H11.4002L3.47807 15.7937L11.4002 0.934692H8.68069Z" fill="#420098"/>
<path d="M19.9531 0.934692L22.9288 15.7937L19.9728 30.633H22.4755L25.4316 15.7937L22.4558 0.934692H19.9531Z" fill="#420098"/>
<path d="M25.3331 0.934692L33.275 15.7937L25.3528 30.633H28.092L35.9945 15.7937L28.0723 0.934692H25.3331Z" fill="#420098"/>
<path d="M109.048 13.8625L111.787 7.00445L114.546 13.8625H109.048ZM108.26 15.8726H115.315L116.635 19.2622H119L113.147 4.81699H110.467L104.594 19.2622H106.92L108.26 15.8726ZM101.756 4.83669H99.4902V19.2819H101.756V4.83669ZM94.8196 19.2622V4.81699H91.6665L87.0748 15.9908H87.0551L82.3845 4.81699H79.3103V19.2622H81.5371V8.48247H81.5963L86.0894 19.2622H88.0207L92.5336 8.44306H92.573V19.2622H94.8196ZM66.1066 4.83669V19.2819H75.4083V17.2126H68.3532V12.9559H74.7185V10.8867H68.3532V6.88621H75.3492V4.81699H66.1066V4.83669ZM60.0172 12.0691C60.0172 13.0545 59.7807 14.0004 59.2289 14.9069C58.9333 15.3405 58.5786 15.7346 58.1844 16.0696C57.3765 16.72 56.0955 17.1732 54.6372 17.1732H52.3709V6.92563H54.6569C56.1152 6.92563 57.3962 7.37889 58.2042 8.06863C59.426 9.15251 60.0566 10.7094 60.0172 12.0691ZM62.4017 12.0691C62.4017 10.7685 62.0076 9.29046 61.1405 7.97009C60.569 7.10299 59.7019 6.31471 58.6574 5.7235C57.6327 5.17171 56.2334 4.83669 54.6963 4.83669H50.1243V19.2819H54.7357C56.8049 19.2819 58.5786 18.6512 59.7413 17.7053C61.5149 16.247 62.4411 14.0595 62.4017 12.0691ZM45.434 4.83669H43.1677V19.2819H45.434V4.83669Z" fill="#420098"/>
<path d="M45.3491 28.632C45.045 28.632 44.7653 28.576 44.5099 28.4639C44.2544 28.3475 44.0334 28.1859 43.8469 27.9791C43.6605 27.7679 43.5145 27.5201 43.4091 27.2357C43.3077 26.9513 43.257 26.641 43.257 26.3049C43.257 25.973 43.3077 25.6692 43.4091 25.3934C43.5145 25.1133 43.6624 24.8698 43.853 24.663C44.0436 24.4518 44.2645 24.2902 44.5159 24.1782C44.7673 24.0661 45.043 24.0101 45.3431 24.0101C45.5417 24.0101 45.7384 24.0446 45.933 24.1135C46.1276 24.1782 46.306 24.2687 46.4682 24.385C46.6344 24.5014 46.7702 24.6349 46.8757 24.7858L46.5472 25.1478C46.4459 25.0185 46.3283 24.9064 46.1945 24.8117C46.0647 24.7169 45.9269 24.6436 45.7809 24.5919C45.635 24.5402 45.489 24.5143 45.3431 24.5143C45.116 24.5143 44.9031 24.5595 44.7045 24.65C44.5099 24.7363 44.3416 24.8591 44.1997 25.0185C44.0578 25.1779 43.9463 25.3676 43.8652 25.5873C43.7882 25.8071 43.7496 26.0463 43.7496 26.3049C43.7496 26.5721 43.7882 26.8177 43.8652 27.0418C43.9463 27.2659 44.0598 27.4598 44.2058 27.6236C44.3558 27.783 44.5301 27.908 44.7288 27.9985C44.9315 28.0847 45.1566 28.1278 45.4039 28.1278C45.5498 28.1278 45.6958 28.1062 45.8418 28.0631C45.9877 28.0157 46.1215 27.9511 46.2432 27.8692C46.3648 27.7873 46.4682 27.6947 46.5533 27.5912L46.7966 28.0114C46.7033 28.132 46.5777 28.2398 46.4195 28.3346C46.2654 28.4251 46.0951 28.4984 45.9087 28.5544C45.7222 28.6061 45.5356 28.632 45.3491 28.632ZM49.526 28.632C49.2097 28.632 48.9279 28.5566 48.6806 28.4057C48.4373 28.2549 48.2448 28.0459 48.1028 27.7787C47.965 27.5115 47.8961 27.2077 47.8961 26.8672C47.8961 26.5311 47.965 26.2316 48.1028 25.9687C48.2448 25.7059 48.4373 25.499 48.6806 25.3482C48.9279 25.1973 49.2097 25.1219 49.526 25.1219C49.8382 25.1219 50.1159 25.1973 50.3592 25.3482C50.6065 25.499 50.7991 25.7059 50.9369 25.9687C51.0789 26.2316 51.1498 26.5311 51.1498 26.8672C51.1498 27.2077 51.0789 27.5115 50.9369 27.7787C50.7991 28.0459 50.6065 28.2549 50.3592 28.4057C50.1159 28.5566 49.8382 28.632 49.526 28.632ZM49.526 28.173C49.7489 28.173 49.9477 28.117 50.122 28.0049C50.2963 27.8886 50.4321 27.7334 50.5295 27.5395C50.6268 27.3413 50.6754 27.1172 50.6754 26.8672C50.6754 26.6173 50.6268 26.3954 50.5295 26.2014C50.4321 26.0075 50.2963 25.8567 50.122 25.749C49.9477 25.6369 49.7489 25.5809 49.526 25.5809C49.303 25.5809 49.1023 25.6369 48.9239 25.749C48.7495 25.8567 48.6117 26.0097 48.5103 26.2079C48.413 26.4018 48.3664 26.6216 48.3704 26.8672C48.3664 27.1172 48.413 27.3413 48.5103 27.5395C48.6117 27.7334 48.7495 27.8886 48.9239 28.0049C49.1023 28.117 49.303 28.173 49.526 28.173ZM52.4234 28.5673V25.193H52.8735L52.8917 25.8976L52.8187 25.9299C52.8593 25.7834 52.9384 25.6498 53.0559 25.5292C53.1735 25.4085 53.3134 25.3116 53.4756 25.2383C53.6418 25.1607 53.8121 25.1219 53.9864 25.1219C54.2216 25.1219 54.4182 25.1715 54.5764 25.2706C54.7345 25.3697 54.8541 25.5227 54.9352 25.7296C55.0163 25.9364 55.0568 26.1993 55.0568 26.5182V28.5673H54.5946V26.544C54.5946 26.32 54.5662 26.1368 54.5095 25.9946C54.4568 25.8481 54.3737 25.7403 54.2601 25.6714C54.1466 25.6024 54.0067 25.5701 53.8405 25.5744C53.7026 25.5744 53.5749 25.6003 53.4573 25.652C53.3398 25.6994 53.2384 25.7662 53.1532 25.8524C53.0681 25.9386 53.0012 26.0377 52.9525 26.1497C52.9039 26.2618 52.8795 26.3824 52.8795 26.5117V28.5673H52.6545C52.6262 28.5673 52.5937 28.5673 52.5572 28.5673C52.5207 28.5673 52.4762 28.5673 52.4234 28.5673ZM56.5357 28.5673V25.193H56.9857L57.004 25.8976L56.931 25.9299C56.9713 25.7834 57.0504 25.6498 57.1682 25.5292C57.2859 25.4085 57.4258 25.3116 57.5878 25.2383C57.7542 25.1607 57.9245 25.1219 58.0987 25.1219C58.3337 25.1219 58.5305 25.1715 58.6886 25.2706C58.8467 25.3697 58.9662 25.5227 59.0474 25.7296C59.1287 25.9364 59.1691 26.1993 59.1691 26.5182V28.5673H58.7069V26.544C58.7069 26.32 58.6787 26.1368 58.6217 25.9946C58.5692 25.8481 58.4857 25.7403 58.3724 25.6714C58.259 25.6024 58.1191 25.5701 57.9527 25.5744C57.8151 25.5744 57.6873 25.6003 57.5696 25.652C57.4518 25.6994 57.3506 25.7662 57.2655 25.8524C57.1803 25.9386 57.1134 26.0377 57.0648 26.1497C57.0161 26.2618 56.9918 26.3824 56.9918 26.5117V28.5673H56.7668C56.7385 28.5673 56.706 28.5673 56.6695 28.5673C56.633 28.5673 56.5885 28.5673 56.5357 28.5673ZM62.0468 28.632C61.7306 28.632 61.4486 28.5587 61.2015 28.4122C60.9582 28.2657 60.7675 28.0609 60.6298 27.7981C60.4921 27.5352 60.423 27.2335 60.423 26.8931C60.423 26.6303 60.4617 26.3932 60.5386 26.1821C60.6154 25.9666 60.7232 25.7791 60.8609 25.6197C61.003 25.4602 61.1711 25.3374 61.3657 25.2512C61.5603 25.1607 61.7709 25.1155 61.9982 25.1155C62.2133 25.1155 62.4079 25.1564 62.582 25.2383C62.7606 25.3201 62.9127 25.4344 63.0382 25.5809C63.1681 25.7231 63.2654 25.8933 63.3301 26.0916C63.3948 26.2898 63.4235 26.5074 63.4152 26.7444L63.4091 26.9707H60.7636L60.6967 26.5634H63.0625L62.953 26.6733V26.5182C62.9447 26.363 62.9021 26.2144 62.8253 26.0722C62.7484 25.9257 62.639 25.8071 62.4969 25.7166C62.3592 25.6261 62.1928 25.5809 61.9982 25.5809C61.7709 25.5809 61.5747 25.6304 61.4083 25.7296C61.2418 25.8243 61.1141 25.9666 61.0251 26.1562C60.9361 26.3458 60.8913 26.5807 60.8913 26.8608C60.8913 27.128 60.94 27.3607 61.0373 27.5589C61.1346 27.7528 61.2722 27.9037 61.4508 28.0114C61.6333 28.1191 61.8522 28.173 62.1077 28.173C62.2575 28.173 62.4057 28.1471 62.5516 28.0954C62.7015 28.0394 62.8657 27.9317 63.0442 27.7722L63.2814 28.1213C63.188 28.2204 63.0769 28.3088 62.9469 28.3863C62.817 28.4596 62.6755 28.5199 62.5212 28.5673C62.367 28.6104 62.2088 28.632 62.0468 28.632ZM66.0094 28.632C65.7092 28.632 65.4416 28.5566 65.2066 28.4057C64.971 28.2506 64.7847 28.0415 64.6471 27.7787C64.5133 27.5115 64.4464 27.2098 64.4464 26.8737C64.4464 26.5376 64.5133 26.2381 64.6471 25.9752C64.7847 25.708 64.971 25.499 65.2066 25.3482C65.4416 25.1973 65.7114 25.1219 66.0154 25.1219C66.2869 25.1219 66.5341 25.1801 66.7574 25.2965C66.9802 25.4085 67.1588 25.5658 67.2926 25.7683L67.025 26.1174C66.9476 26.0097 66.8547 25.9148 66.7453 25.833C66.6397 25.7511 66.5241 25.6886 66.3986 25.6455C66.277 25.5981 66.1553 25.5744 66.0337 25.5744C65.8186 25.5744 65.6262 25.6326 65.4559 25.749C65.2856 25.861 65.1496 26.014 65.0485 26.2079C64.9511 26.4018 64.9025 26.6238 64.9025 26.8737C64.9025 27.1236 64.9511 27.3478 65.0485 27.546C65.1496 27.7399 65.2856 27.8929 65.4559 28.0049C65.6262 28.117 65.8164 28.173 66.0276 28.173C66.1492 28.173 66.2687 28.1536 66.3864 28.1148C66.5036 28.0718 66.6153 28.0114 66.7209 27.9338C66.826 27.8563 66.9233 27.7593 67.0129 27.6429L67.2804 27.992C67.1422 28.1859 66.9581 28.3411 66.727 28.4574C66.4959 28.5738 66.2565 28.632 66.0094 28.632ZM68.9187 28.5673V24.3074H69.3748V28.5673H68.9187ZM68.201 25.6585V25.193H70.1776V25.6585H68.201ZM71.4675 28.5673V25.193H71.9236V28.5673H71.4675ZM71.6925 24.4626C71.5791 24.4626 71.4918 24.4324 71.431 24.3721C71.374 24.3074 71.3458 24.2212 71.3458 24.1135C71.3458 24.0058 71.3762 23.9196 71.437 23.855C71.4979 23.7903 71.583 23.758 71.6925 23.758C71.8019 23.758 71.8871 23.7903 71.9479 23.855C72.0087 23.9153 72.0391 24.0015 72.0391 24.1135C72.0391 24.2169 72.0087 24.301 71.9479 24.3656C71.8871 24.4303 71.8019 24.4626 71.6925 24.4626ZM74.5133 28.5673L73.1753 25.193H73.6801L74.7383 27.9532L74.6167 28.0243L75.7783 25.193H76.2648L74.8417 28.5673H74.5133ZM77.5298 28.5673V25.193H77.986V28.5673H77.5298ZM77.7549 24.4626C77.6415 24.4626 77.5542 24.4324 77.4934 24.3721C77.437 24.3074 77.4082 24.2212 77.4082 24.1135C77.4082 24.0058 77.4386 23.9196 77.4994 23.855C77.5603 23.7903 77.6454 23.758 77.7549 23.758C77.8643 23.758 77.9495 23.7903 78.0103 23.855C78.0711 23.9153 78.1015 24.0015 78.1015 24.1135C78.1015 24.2169 78.0711 24.301 78.0103 24.3656C77.9495 24.4303 77.8643 24.4626 77.7549 24.4626ZM80.0283 28.5673V24.3074H80.4845V28.5673H80.0283ZM79.3107 25.6585V25.193H81.2873V25.6585H79.3107ZM82.9907 30.0541L83.605 28.4639L83.6475 28.9228L82.0541 25.193H82.5711L83.6597 27.7787C83.6923 27.8476 83.7249 27.9295 83.757 28.0243C83.7896 28.1148 83.82 28.2053 83.8482 28.2958L83.6779 28.2764C83.7067 28.2032 83.7327 28.1278 83.757 28.0502C83.7857 27.9726 83.8117 27.8972 83.8361 27.8239L84.7909 25.193H85.3139L84.0307 28.5673L83.4833 30.0541H82.9907ZM91.7429 28.5673V24.0424H92.2173V28.5673H91.7429ZM88.8966 28.5673V24.0424H89.371V28.5673H88.8966ZM89.1277 26.557V26.0657H91.9436V26.557H89.1277ZM95.0209 28.632C94.7777 28.632 94.5709 28.5802 94.4006 28.4768C94.2342 28.3691 94.1065 28.214 94.0174 28.0114C93.9323 27.8088 93.8897 27.5567 93.8897 27.2551V25.193H94.3519V27.1581C94.3519 27.3866 94.3801 27.5783 94.4371 27.7334C94.4979 27.8843 94.5869 27.9985 94.7047 28.076C94.8263 28.1536 94.9739 28.1924 95.1487 28.1924C95.2824 28.1924 95.4057 28.1687 95.5196 28.1213C95.633 28.0696 95.7325 28.0006 95.8176 27.9144C95.9028 27.8282 95.9697 27.727 96.0183 27.6106C96.067 27.4943 96.0913 27.3715 96.0913 27.2422V25.193H96.5475V28.5673H96.0974L96.0792 27.8563L96.1521 27.8175C96.1035 27.9683 96.0222 28.1062 95.9089 28.2312C95.795 28.3518 95.6595 28.4488 95.5014 28.5221C95.3471 28.5954 95.1868 28.632 95.0209 28.632ZM99.6552 28.632C99.5054 28.632 99.3594 28.6083 99.2173 28.5609C99.0752 28.5091 98.9459 28.4402 98.8281 28.354C98.7148 28.2678 98.6175 28.1687 98.5362 28.0567C98.4593 27.9446 98.4062 27.8282 98.378 27.7076L98.5118 27.7141L98.4936 28.5609H98.0436V23.7839H98.4997V26.0011L98.4085 26.0269C98.4367 25.9063 98.4875 25.792 98.5605 25.6843C98.6374 25.5722 98.733 25.4753 98.8463 25.3934C98.9597 25.3072 99.0835 25.2405 99.2173 25.193C99.355 25.1456 99.4971 25.1219 99.6431 25.1219C99.9267 25.1219 100.18 25.1973 100.403 25.3482C100.631 25.499 100.811 25.7059 100.945 25.9687C101.078 26.2316 101.145 26.5333 101.145 26.8737C101.145 27.2141 101.081 27.518 100.951 27.7852C100.821 28.048 100.643 28.2549 100.415 28.4057C100.193 28.5566 99.9389 28.632 99.6552 28.632ZM99.5822 28.173C99.7973 28.173 99.9875 28.117 100.154 28.0049C100.32 27.8886 100.45 27.7334 100.543 27.5395C100.64 27.3413 100.689 27.1194 100.689 26.8737C100.689 26.6238 100.64 26.4018 100.543 26.2079C100.45 26.014 100.32 25.861 100.154 25.749C99.9875 25.6369 99.7973 25.5809 99.5822 25.5809C99.3672 25.5809 99.177 25.6369 99.0106 25.749C98.8441 25.861 98.7125 26.014 98.6152 26.2079C98.5218 26.4018 98.4754 26.6238 98.4754 26.8737C98.4754 27.1236 98.5218 27.3478 98.6152 27.546C98.7125 27.7399 98.8441 27.8929 99.0106 28.0049C99.177 28.117 99.3672 28.173 99.5822 28.173ZM105.989 29.7697C105.494 29.4422 105.117 29.0327 104.858 28.5415C104.598 28.0502 104.469 27.5029 104.469 26.8996C104.469 26.3006 104.598 25.7554 104.858 25.2641C105.121 24.7686 105.5 24.357 105.995 24.0295L106.245 24.3333C105.81 24.6565 105.478 25.0379 105.247 25.4775C105.02 25.9127 104.907 26.3867 104.907 26.8996C104.907 27.4124 105.02 27.8886 105.247 28.3281C105.478 28.7634 105.81 29.1426 106.245 29.4658L105.989 29.7697ZM107.392 28.5673V28.0972H107.892V25.7466H107.392V25.2765H108.87V25.7466H108.37V28.0972H108.87V28.5673H107.392ZM111.253 28.6143C111.038 28.6143 110.841 28.5736 110.66 28.4921C110.481 28.4106 110.324 28.2946 110.192 28.1442C110.059 27.9907 109.956 27.8104 109.882 27.6036C109.811 27.3967 109.776 27.1695 109.776 26.9219C109.776 26.6868 109.814 26.469 109.891 26.2684C109.97 26.0647 110.08 25.886 110.218 25.7325C110.357 25.5789 110.518 25.4598 110.7 25.3752C110.883 25.2906 111.081 25.2483 111.293 25.2483C111.443 25.2483 111.589 25.2734 111.731 25.3235C111.876 25.3705 112.005 25.4379 112.12 25.5256C112.238 25.6103 112.334 25.7074 112.408 25.8171L112.089 26.1697C112.004 26.0788 111.917 26.0036 111.828 25.9441C111.743 25.8813 111.654 25.8343 111.563 25.803C111.474 25.7717 111.385 25.756 111.293 25.756C111.149 25.756 111.013 25.7858 110.886 25.8453C110.762 25.9017 110.653 25.9817 110.559 26.0851C110.467 26.1885 110.395 26.3123 110.342 26.4565C110.289 26.5975 110.262 26.7527 110.262 26.9219C110.262 27.1005 110.288 27.2635 110.338 27.4108C110.391 27.555 110.465 27.6788 110.559 27.7822C110.653 27.8856 110.765 27.9656 110.895 28.022C111.028 28.0753 111.173 28.1019 111.333 28.1019C111.43 28.1019 111.526 28.0878 111.62 28.0596C111.715 28.0314 111.803 27.9907 111.886 27.9374C111.969 27.8841 112.044 27.8214 112.111 27.7493L112.35 28.163C112.283 28.2476 112.19 28.3244 112.071 28.3934C111.956 28.4623 111.827 28.5172 111.682 28.5579C111.541 28.5955 111.398 28.6143 111.253 28.6143ZM115.463 28.5673V25.2765H115.94V28.5673H115.463ZM113.441 28.5673V25.2765H113.919V28.5673H113.441ZM113.649 27.1711V26.6821H115.675V27.1711H113.649ZM117.283 29.7697L117.034 29.4658C117.468 29.1426 117.798 28.7634 118.025 28.3281C118.252 27.8886 118.366 27.4124 118.366 26.8996C118.366 26.3867 118.252 25.9127 118.025 25.4775C117.798 25.0379 117.468 24.6565 117.034 24.3333L117.29 24.0295C117.784 24.357 118.161 24.7664 118.421 25.2577C118.68 25.749 118.81 26.2962 118.81 26.8996C118.81 27.4986 118.678 28.0459 118.415 28.5415C118.155 29.0327 117.778 29.4422 117.283 29.7697Z" fill="#420098"/>
</svg>
