<svg width="42" height="42" viewBox="0 0 42 42" fill="none" xmlns="http://www.w3.org/2000/svg">
<circle cx="21" cy="21" r="21" fill="#6B87EB"/>
<g clip-path="url(#clip0_467_142310)">
<path d="M30.7897 14.0905C30.8012 14.0252 30.8127 13.96 30.8242 13.8947L30.8357 13.8295C30.8472 13.7642 30.7935 13.6875 30.7283 13.676C30.7283 13.676 30.7283 13.676 30.7398 13.6108C30.686 13.534 30.6208 13.5225 30.567 13.4458L30.5018 13.4343C30.4366 13.4228 30.3713 13.4113 30.3176 13.3345L30.2523 13.323C30.1871 13.3115 30.1219 13.3 30.0566 13.2885L29.9914 13.277L12.3007 18.23C12.0589 18.4564 11.8287 18.6176 11.7942 18.8134C11.7597 19.0091 11.7789 19.2816 11.9516 19.4465L14.8955 22.5891L19.9646 19.7831C20.2601 19.6334 20.7168 19.714 20.855 20.0747C21.0047 20.3702 20.9241 20.8268 20.5634 20.965L15.6478 23.6636L14.739 28.8176C14.693 29.0786 14.8427 29.374 15.0922 29.4853C15.1459 29.562 15.2112 29.5736 15.2764 29.5851C15.4721 29.6196 15.6794 29.5888 15.8443 29.4161L18.8104 26.7102L21.0212 29.0508C21.1402 29.1391 21.2592 29.2273 21.3897 29.2503C21.4549 29.2618 21.5202 29.2733 21.5854 29.2848C21.7926 29.2541 21.9461 29.1466 22.1111 28.9739L30.7437 14.3514C30.7552 14.2862 30.7667 14.2209 30.7897 14.0905C30.7782 14.1557 30.7782 14.1557 30.7897 14.0905Z" fill="white"/>
</g>
<defs>
<clipPath id="clip0_467_142310">
<rect width="21.1992" height="21.1992" fill="white" transform="translate(12.2034 8.8623) rotate(10)"/>
</clipPath>
</defs>
</svg>
