<svg width="59" height="18" viewBox="0 0 59 18" fill="none" xmlns="http://www.w3.org/2000/svg">
<g filter="url(#filter0_d_467_138466)">
<path d="M24.3524 1H5.64764C4.73764 1 4 1.73764 4 2.64764V5.80459H26V2.64764C26 1.73764 25.2624 1 24.3524 1Z" fill="#FAB446"/>
</g>
<path d="M4 13.7661C4 14.6761 4.73764 15.4138 5.64764 15.4138H24.3524C25.2623 15.4138 26 14.6761 26 13.7661V10.6092H4V13.7661Z" fill="#73AF00"/>
<path d="M26 5.8045H4V10.6088H26V5.8045Z" fill="#F5F5F5"/>
<path d="M15 10.2457C13.8758 10.2457 12.9612 9.33111 12.9612 8.20687C12.9612 7.08264 13.8758 6.16809 15 6.16809C16.1243 6.16809 17.0388 7.08264 17.0388 8.20687C17.0388 9.33111 16.1243 10.2457 15 10.2457ZM15 6.54738C14.0849 6.54738 13.3405 7.29172 13.3405 8.20687C13.3405 9.12202 14.0849 9.86637 15 9.86637C15.9152 9.86637 16.6595 9.12202 16.6595 8.20687C16.6595 7.29172 15.9152 6.54738 15 6.54738Z" fill="#41479B"/>
<path d="M15 8.43803C15.1277 8.43803 15.2312 8.33455 15.2312 8.2069C15.2312 8.07925 15.1277 7.97577 15 7.97577C14.8724 7.97577 14.7689 8.07925 14.7689 8.2069C14.7689 8.33455 14.8724 8.43803 15 8.43803Z" fill="#41479B"/>
<path d="M15 8.2415L14.4126 8.3008L13.1509 8.2415V8.17215L14.4126 8.11285L15 8.17215V8.2415Z" fill="#41479B"/>
<path d="M15 8.2415L15.5874 8.3008L16.8491 8.2415V8.17215L15.5874 8.11285L15 8.17215V8.2415Z" fill="#41479B"/>
<path d="M14.9654 8.20684L14.9061 7.61946L14.9654 6.35773H15.0347L15.094 7.61946L15.0347 8.20684H14.9654Z" fill="#41479B"/>
<path d="M14.9654 8.20685L14.9061 8.79423L14.9654 10.056H15.0347L15.094 8.79423L15.0347 8.20685H14.9654Z" fill="#41479B"/>
<path d="M14.9755 8.23134L14.5182 7.85798L13.668 6.92384L13.717 6.87482L14.6511 7.72508L15.0245 8.18236L14.9755 8.23134Z" fill="#41479B"/>
<path d="M14.9755 8.23136L15.3489 8.68863L16.283 9.5389L16.332 9.48987L15.4818 8.55573L15.0245 8.18237L14.9755 8.23136Z" fill="#41479B"/>
<path d="M14.9755 8.18236L15.3489 7.72508L16.283 6.87482L16.332 6.92384L15.4818 7.85798L15.0245 8.23134L14.9755 8.18236Z" fill="#41479B"/>
<path d="M14.9755 8.18237L14.5182 8.55573L13.668 9.48987L13.717 9.5389L14.6511 8.68863L15.0245 8.23136L14.9755 8.18237Z" fill="#41479B"/>
<path d="M15.0133 8.23891L14.4933 8.51847L13.3049 8.94652L13.2784 8.88246L14.4214 8.34483L14.9867 8.1748L15.0133 8.23891Z" fill="#41479B"/>
<path d="M15.0133 8.23894L15.5787 8.06892L16.7217 7.53129L16.6951 7.46722L15.5068 7.89528L14.9868 8.17483L15.0133 8.23894Z" fill="#41479B"/>
<path d="M14.968 8.22014L14.6884 7.70013L14.2604 6.51178L14.3244 6.48523L14.8621 7.62824L15.0321 8.19358L14.968 8.22014Z" fill="#41479B"/>
<path d="M14.968 8.22016L15.138 8.7855L15.6756 9.92851L15.7397 9.90196L15.3116 8.71361L15.0321 8.1936L14.968 8.22016Z" fill="#41479B"/>
<path d="M14.9867 8.23894L14.4214 8.06892L13.2784 7.53129L13.3049 7.46722L14.4933 7.89528L15.0133 8.17483L14.9867 8.23894Z" fill="#41479B"/>
<path d="M14.9868 8.23891L15.5068 8.51847L16.6951 8.94652L16.7217 8.88246L15.5787 8.34483L15.0133 8.1748L14.9868 8.23891Z" fill="#41479B"/>
<path d="M14.968 8.19358L15.138 7.62824L15.6756 6.48523L15.7397 6.51178L15.3116 7.70013L15.0321 8.22014L14.968 8.19358Z" fill="#41479B"/>
<path d="M14.968 8.1936L14.6884 8.71361L14.2604 9.90196L14.3244 9.92851L14.8621 8.7855L15.0321 8.22016L14.968 8.1936Z" fill="#41479B"/>
<path d="M15 8.5187C15.1722 8.5187 15.3118 8.37912 15.3118 8.20692C15.3118 8.03473 15.1722 7.89514 15 7.89514C14.8278 7.89514 14.6882 8.03473 14.6882 8.20692C14.6882 8.37912 14.8278 8.5187 15 8.5187Z" fill="#F5F5F5"/>
<path d="M15 8.39387C15.1033 8.39387 15.187 8.31017 15.187 8.20692C15.187 8.10366 15.1033 8.01996 15 8.01996C14.8968 8.01996 14.813 8.10366 14.813 8.20692C14.813 8.31017 14.8968 8.39387 15 8.39387Z" fill="#41479B"/>
<path d="M36.2773 12.1676V4.96591H37.7102V12.1676H36.2773ZM33.3956 9.28054V7.85298H40.5973V9.28054H33.3956ZM46.6671 2.94176C47.1536 2.94531 47.633 3.03409 48.1053 3.2081C48.5776 3.3821 49.0037 3.66619 49.3837 4.06037C49.7672 4.45455 50.0726 4.98722 50.2999 5.65838C50.5307 6.32599 50.6479 7.15696 50.6515 8.15128C50.6515 9.10653 50.5556 9.95703 50.3638 10.7028C50.1721 11.445 49.8968 12.0717 49.5382 12.5831C49.1831 13.0945 48.7516 13.4833 48.2438 13.7496C47.736 14.016 47.1642 14.1491 46.5286 14.1491C45.8787 14.1491 45.3017 14.0213 44.7974 13.7656C44.2931 13.5099 43.883 13.1566 43.5669 12.7056C43.2509 12.2511 43.0538 11.729 42.9757 11.1396H44.6003C44.7069 11.6083 44.9235 11.9883 45.2502 12.2795C45.5804 12.5671 46.0066 12.7109 46.5286 12.7109C47.3276 12.7109 47.9508 12.3629 48.3983 11.6669C48.8457 10.9673 49.0712 9.99077 49.0748 8.73722H48.9895C48.8049 9.04261 48.574 9.3054 48.2971 9.52557C48.0236 9.74574 47.7164 9.91619 47.3755 10.0369C47.0346 10.1577 46.6706 10.218 46.2836 10.218C45.655 10.218 45.0833 10.0636 44.5684 9.75462C44.0534 9.44567 43.6433 9.02131 43.3379 8.48153C43.0325 7.94176 42.8798 7.32564 42.8798 6.63317C42.8798 5.94425 43.036 5.31925 43.3485 4.75817C43.6646 4.19709 44.1049 3.7532 44.6696 3.42649C45.2377 3.09624 45.9036 2.93466 46.6671 2.94176ZM46.6724 4.3267C46.2569 4.3267 45.8823 4.42969 45.5485 4.63565C45.2182 4.83807 44.9572 5.11328 44.7654 5.46129C44.5737 5.80575 44.4778 6.18928 44.4778 6.61186C44.4778 7.03445 44.5701 7.41797 44.7548 7.76243C44.943 8.10334 45.1987 8.375 45.5218 8.57741C45.8485 8.77628 46.2214 8.87571 46.6404 8.87571C46.9529 8.87571 47.2441 8.81534 47.514 8.6946C47.7839 8.57386 48.0201 8.40696 48.2225 8.19389C48.4249 7.97727 48.5829 7.73224 48.6966 7.45881C48.8102 7.18537 48.867 6.89773 48.867 6.59588C48.867 6.1946 48.7711 5.82173 48.5794 5.47727C48.3912 5.13281 48.1319 4.85582 47.8017 4.64631C47.4714 4.43324 47.095 4.3267 46.6724 4.3267ZM56.7146 3.09091V14H55.0633V4.74219H54.9994L52.3893 6.44673V4.87003L55.1112 3.09091H56.7146Z" fill="black" fill-opacity="0.74"/>
<defs>
<filter id="filter0_d_467_138466" x="0" y="1" width="30" height="12.8046" filterUnits="userSpaceOnUse" color-interpolation-filters="sRGB">
<feFlood flood-opacity="0" result="BackgroundImageFix"/>
<feColorMatrix in="SourceAlpha" type="matrix" values="0 0 0 0 0 0 0 0 0 0 0 0 0 0 0 0 0 0 127 0" result="hardAlpha"/>
<feOffset dy="4"/>
<feGaussianBlur stdDeviation="2"/>
<feComposite in2="hardAlpha" operator="out"/>
<feColorMatrix type="matrix" values="0 0 0 0 0 0 0 0 0 0 0 0 0 0 0 0 0 0 0.25 0"/>
<feBlend mode="normal" in2="BackgroundImageFix" result="effect1_dropShadow_467_138466"/>
<feBlend mode="normal" in="SourceGraphic" in2="effect1_dropShadow_467_138466" result="shape"/>
</filter>
</defs>
</svg>
