<svg width="12" height="20" viewBox="0 0 12 20" fill="none" xmlns="http://www.w3.org/2000/svg">
<path d="M10.004 0H1.996C1.46663 0 0.958937 0.210292 0.584615 0.584615C0.210292 0.958937 0 1.46663 0 1.996V18.003C0 19.106 0.894 20 1.996 20H10.003C10.5325 20 11.0403 19.7897 11.4147 19.4154C11.7892 19.0412 11.9997 18.5335 12 18.004V1.996C12 1.46663 11.7897 0.958937 11.4154 0.584615C11.0411 0.210292 10.5334 0 10.004 0V0ZM6 19C5.31 19 4.75 18.553 4.75 18C4.75 17.447 5.31 17 6 17C6.69 17 7.25 17.447 7.25 18C7.25 18.553 6.69 19 6 19ZM10 16H2V2H10V16Z" fill="#424242"/>
</svg>
