<svg width="38" height="30" viewBox="0 0 38 30" fill="none" xmlns="http://www.w3.org/2000/svg">
<path d="M0 26V4C0 1.8 1.8 0 4 0H34C36.2 0 38 1.8 38 4V26C38 28.2 36.2 30 34 30H4C1.8 30 0 28.2 0 26Z" fill="#35C7A4"/>
<path d="M38 12V10H26C24.9 10 24 9.1 24 8C24 6.9 24.9 6 26 6H27V4H26C23.8 4 22 5.8 22 8C22 10.2 23.8 12 26 12H29V18H26C23.2 18 21 20.2 21 23C21 25.8 23.2 28 26 28H28V26H26C24.3 26 23 24.7 23 23C23 21.3 24.3 20 26 20H38V18H31V12H38Z" fill="#FFD54F"/>
<path d="M12 18H9V12H12C14.2 12 16 10.2 16 8C16 5.8 14.2 4 12 4H9V6H12C13.1 6 14 6.9 14 8C14 9.1 13.1 10 12 10H0V12H7V18H0V20H12C13.7 20 15 21.3 15 23C15 24.7 13.7 26 12 26H10V28H12C14.8 28 17 25.8 17 23C17 20.2 14.8 18 12 18Z" fill="#FFD54F"/>
</svg>
