<svg width="180" height="44" viewBox="0 0 180 44" fill="none" xmlns="http://www.w3.org/2000/svg">
<path d="M20.4197 0.785522L15.9548 21.9917L20.4197 43.1699H24.2001L19.7351 21.9917L24.2001 0.785522H20.4197Z" fill="white"/>
<path d="M11.9661 0.785522L0 21.9917L11.9363 43.1699H16.0738L4.10776 21.9917L16.0738 0.785522H11.9661Z" fill="white"/>
<path d="M28.9924 0.785522L33.4872 21.9917L29.0222 43.1699H32.8025L37.2675 21.9917L32.7728 0.785522H28.9924Z" fill="white"/>
<path d="M37.1187 0.785522L49.1145 21.9917L37.1484 43.1699H41.2859L53.2223 21.9917L41.2562 0.785522H37.1187Z" fill="white"/>
<path d="M163.566 19.2355L167.704 9.44805L171.871 19.2355H163.566ZM162.375 22.1043H173.032L175.026 26.9418H178.598L169.758 6.32617H165.709L156.839 26.9418H160.351L162.375 22.1043ZM152.553 6.3543H149.129V26.9699H152.553V6.3543ZM142.075 26.9418V6.32617H137.312L130.377 22.273H130.347L123.292 6.32617H118.649V26.9418H122.012V11.5574H122.102L128.888 26.9418H131.805L138.622 11.5012H138.681V26.9418H142.075ZM98.7053 6.3543V26.9699H112.755V24.0168H102.099V17.9418H111.713V14.9887H102.099V9.2793H112.666V6.32617H98.7053V6.3543ZM89.5075 16.6762C89.5075 18.0824 89.1503 19.4324 88.3168 20.7262C87.8703 21.3449 87.3345 21.9074 86.7392 22.3855C85.5188 23.3137 83.5839 23.9605 81.3812 23.9605H77.958V9.33555H81.4109C83.6136 9.33555 85.5485 9.98242 86.7689 10.9668C88.6145 12.5137 89.567 14.7355 89.5075 16.6762ZM93.1092 16.6762C93.1092 14.8199 92.5138 12.7105 91.2041 10.8262C90.3409 9.58867 89.0312 8.46367 87.4536 7.61992C85.9057 6.83242 83.7922 6.3543 81.4704 6.3543H74.5646V26.9699H81.53C84.6554 26.9699 87.3345 26.0699 89.0907 24.7199C91.7697 22.6387 93.1687 19.5168 93.1092 16.6762ZM67.4803 6.3543H64.0571V26.9699H67.4803V6.3543Z" fill="white"/>
<path d="M67.82 41.1C67.3333 41.1 66.8867 41.0133 66.48 40.84C66.0733 40.6667 65.72 40.42 65.42 40.1C65.12 39.7733 64.8867 39.39 64.72 38.95C64.56 38.51 64.48 38.0267 64.48 37.5C64.48 37 64.5667 36.5367 64.74 36.11C64.92 35.6767 65.1667 35.2967 65.48 34.97C65.7933 34.6433 66.1567 34.39 66.57 34.21C66.9833 34.03 67.43 33.94 67.91 33.94C68.25 33.94 68.58 33.9933 68.9 34.1C69.2267 34.2 69.52 34.3433 69.78 34.53C70.0467 34.71 70.2633 34.9167 70.43 35.15L69.71 35.9C69.5167 35.7067 69.32 35.5467 69.12 35.42C68.9267 35.2867 68.7267 35.1867 68.52 35.12C68.32 35.0533 68.1167 35.02 67.91 35.02C67.5833 35.02 67.2767 35.0833 66.99 35.21C66.71 35.33 66.4633 35.5 66.25 35.72C66.0433 35.94 65.88 36.2033 65.76 36.51C65.64 36.81 65.58 37.14 65.58 37.5C65.58 37.88 65.6367 38.2267 65.75 38.54C65.87 38.8467 66.0367 39.11 66.25 39.33C66.4633 39.55 66.7167 39.72 67.01 39.84C67.31 39.9533 67.64 40.01 68 40.01C68.22 40.01 68.4367 39.98 68.65 39.92C68.8633 39.86 69.0633 39.7733 69.25 39.66C69.4367 39.5467 69.6067 39.4133 69.76 39.26L70.3 40.14C70.1467 40.32 69.9367 40.4833 69.67 40.63C69.41 40.7767 69.1167 40.8933 68.79 40.98C68.47 41.06 68.1467 41.1 67.82 41.1ZM74.1671 41.1C73.6538 41.1 73.1938 40.9833 72.7871 40.75C72.3871 40.51 72.0704 40.1867 71.8371 39.78C71.6038 39.3667 71.4871 38.8967 71.4871 38.37C71.4871 37.8433 71.6038 37.3767 71.8371 36.97C72.0704 36.5567 72.3871 36.2333 72.7871 36C73.1938 35.76 73.6538 35.64 74.1671 35.64C74.6738 35.64 75.1271 35.76 75.5271 36C75.9338 36.2333 76.2538 36.5567 76.4871 36.97C76.7204 37.3767 76.8371 37.8433 76.8371 38.37C76.8371 38.8967 76.7204 39.3667 76.4871 39.78C76.2538 40.1867 75.9338 40.51 75.5271 40.75C75.1271 40.9833 74.6738 41.1 74.1671 41.1ZM74.1671 40.16C74.4804 40.16 74.7604 40.0833 75.0071 39.93C75.2538 39.77 75.4471 39.5567 75.5871 39.29C75.7271 39.0167 75.7938 38.71 75.7871 38.37C75.7938 38.0233 75.7271 37.7167 75.5871 37.45C75.4471 37.1767 75.2538 36.9633 75.0071 36.81C74.7604 36.6567 74.4804 36.58 74.1671 36.58C73.8538 36.58 73.5704 36.66 73.3171 36.82C73.0704 36.9733 72.8771 37.1867 72.7371 37.46C72.5971 37.7267 72.5304 38.03 72.5371 38.37C72.5304 38.71 72.5971 39.0167 72.7371 39.29C72.8771 39.5567 73.0704 39.77 73.3171 39.93C73.5704 40.0833 73.8538 40.16 74.1671 40.16ZM78.2595 41V35.75H79.2895V36.83L79.1095 36.95C79.1761 36.7167 79.3061 36.5033 79.4995 36.31C79.6928 36.11 79.9228 35.95 80.1895 35.83C80.4561 35.7033 80.7295 35.64 81.0095 35.64C81.4095 35.64 81.7428 35.72 82.0095 35.88C82.2761 36.0333 82.4761 36.27 82.6095 36.59C82.7428 36.91 82.8095 37.3133 82.8095 37.8V41H81.7795V37.87C81.7795 37.57 81.7395 37.3233 81.6595 37.13C81.5795 36.93 81.4561 36.7867 81.2895 36.7C81.1228 36.6067 80.9161 36.5667 80.6695 36.58C80.4695 36.58 80.2861 36.6133 80.1195 36.68C79.9528 36.74 79.8061 36.8267 79.6795 36.94C79.5595 37.0533 79.4628 37.1867 79.3895 37.34C79.3228 37.4867 79.2895 37.6467 79.2895 37.82V41H78.7795C78.6928 41 78.6061 41 78.5195 41C78.4328 41 78.3461 41 78.2595 41ZM84.5067 41V35.75H85.5367V36.83L85.3567 36.95C85.4234 36.7167 85.5534 36.5033 85.7467 36.31C85.9401 36.11 86.1701 35.95 86.4367 35.83C86.7034 35.7033 86.9767 35.64 87.2567 35.64C87.6567 35.64 87.9901 35.72 88.2567 35.88C88.5234 36.0333 88.7234 36.27 88.8567 36.59C88.9901 36.91 89.0567 37.3133 89.0567 37.8V41H88.0267V37.87C88.0267 37.57 87.9867 37.3233 87.9067 37.13C87.8267 36.93 87.7034 36.7867 87.5367 36.7C87.3701 36.6067 87.1634 36.5667 86.9167 36.58C86.7167 36.58 86.5334 36.6133 86.3667 36.68C86.2001 36.74 86.0534 36.8267 85.9267 36.94C85.8067 37.0533 85.7101 37.1867 85.6367 37.34C85.5701 37.4867 85.5367 37.6467 85.5367 37.82V41H85.0267C84.9401 41 84.8534 41 84.7667 41C84.6801 41 84.5934 41 84.5067 41ZM93.204 41.1C92.664 41.1 92.184 40.9867 91.764 40.76C91.3507 40.5267 91.024 40.21 90.784 39.81C90.5507 39.41 90.434 38.95 90.434 38.43C90.434 38.0167 90.5007 37.64 90.634 37.3C90.7673 36.96 90.9507 36.6667 91.184 36.42C91.424 36.1667 91.7073 35.9733 92.034 35.84C92.3673 35.7 92.7273 35.63 93.114 35.63C93.454 35.63 93.7707 35.6967 94.064 35.83C94.3573 35.9567 94.6107 36.1333 94.824 36.36C95.044 36.5867 95.2107 36.8567 95.324 37.17C95.444 37.4767 95.5007 37.8133 95.494 38.18L95.484 38.62H91.194L90.964 37.8H94.594L94.444 37.97V37.73C94.424 37.51 94.3507 37.3133 94.224 37.14C94.0973 36.9667 93.9373 36.83 93.744 36.73C93.5507 36.63 93.3407 36.58 93.114 36.58C92.754 36.58 92.4507 36.65 92.204 36.79C91.9573 36.9233 91.7707 37.1233 91.644 37.39C91.5173 37.65 91.454 37.9733 91.454 38.36C91.454 38.7267 91.5307 39.0467 91.684 39.32C91.8373 39.5867 92.054 39.7933 92.334 39.94C92.614 40.0867 92.9373 40.16 93.304 40.16C93.564 40.16 93.804 40.1167 94.024 40.03C94.2507 39.9433 94.494 39.7867 94.754 39.56L95.274 40.29C95.114 40.45 94.9173 40.59 94.684 40.71C94.4573 40.83 94.214 40.9267 93.954 41C93.7007 41.0667 93.4507 41.1 93.204 41.1ZM99.1434 41.1C98.6567 41.1 98.22 40.98 97.8334 40.74C97.4534 40.5 97.15 40.1733 96.9234 39.76C96.7034 39.3467 96.5934 38.8833 96.5934 38.37C96.5934 37.8567 96.7034 37.3933 96.9234 36.98C97.15 36.5667 97.4534 36.24 97.8334 36C98.22 35.76 98.6567 35.64 99.1434 35.64C99.61 35.64 100.033 35.7367 100.413 35.93C100.8 36.1167 101.093 36.3733 101.293 36.7L100.723 37.4C100.617 37.2467 100.48 37.1067 100.313 36.98C100.147 36.8533 99.97 36.7533 99.7834 36.68C99.5967 36.6067 99.4167 36.57 99.2434 36.57C98.9234 36.57 98.6367 36.65 98.3834 36.81C98.1367 36.9633 97.94 37.1767 97.7934 37.45C97.6467 37.7233 97.5734 38.03 97.5734 38.37C97.5734 38.71 97.65 39.0167 97.8034 39.29C97.9567 39.5567 98.16 39.77 98.4134 39.93C98.6667 40.09 98.9467 40.17 99.2534 40.17C99.4334 40.17 99.6067 40.14 99.7734 40.08C99.9467 40.02 100.113 39.93 100.273 39.81C100.433 39.69 100.583 39.5433 100.723 39.37L101.293 40.07C101.08 40.37 100.773 40.6167 100.373 40.81C99.98 41.0033 99.57 41.1 99.1434 41.1ZM103.215 41V34.41H104.245V41H103.215ZM102.125 36.75V35.75H105.465V36.75H102.125ZM106.873 41V35.75H107.903V41H106.873ZM107.373 34.59C107.153 34.59 106.983 34.5333 106.863 34.42C106.743 34.3067 106.683 34.1467 106.683 33.94C106.683 33.7467 106.743 33.59 106.863 33.47C106.989 33.35 107.159 33.29 107.373 33.29C107.593 33.29 107.763 33.3467 107.883 33.46C108.003 33.5733 108.063 33.7333 108.063 33.94C108.063 34.1333 107.999 34.29 107.873 34.41C107.753 34.53 107.586 34.59 107.373 34.59ZM111.506 41L109.286 35.75H110.396L111.996 39.68L111.806 39.77L113.516 35.75H114.576L112.246 41H111.506ZM115.988 41V35.75H117.018V41H115.988ZM116.488 34.59C116.268 34.59 116.098 34.5333 115.978 34.42C115.858 34.3067 115.798 34.1467 115.798 33.94C115.798 33.7467 115.858 33.59 115.978 33.47C116.105 33.35 116.275 33.29 116.488 33.29C116.708 33.29 116.878 33.3467 116.998 33.46C117.118 33.5733 117.178 33.7333 117.178 33.94C117.178 34.1333 117.115 34.29 116.988 34.41C116.868 34.53 116.702 34.59 116.488 34.59ZM119.552 41V34.41H120.582V41H119.552ZM118.462 36.75V35.75H121.802V36.75H118.462ZM123.92 43.3L124.98 40.85L124.99 41.67L122.37 35.75H123.57L125.21 39.61C125.243 39.6767 125.283 39.78 125.33 39.92C125.376 40.0533 125.416 40.1867 125.45 40.32L125.19 40.38C125.243 40.24 125.293 40.1 125.34 39.96C125.393 39.82 125.443 39.68 125.49 39.54L126.86 35.75H128.08L125.92 41L125.03 43.3H123.92ZM137.083 41V34H138.163V41H137.083ZM132.513 41V34H133.593V41H132.513ZM132.983 38.03V36.99H137.563V38.03H132.983ZM142 41.1C141.627 41.1 141.3 41.0133 141.02 40.84C140.747 40.6667 140.534 40.4233 140.38 40.11C140.234 39.7967 140.16 39.4233 140.16 38.99V35.75H141.19V38.71C141.19 39.0167 141.237 39.2833 141.33 39.51C141.43 39.73 141.57 39.9 141.75 40.02C141.937 40.14 142.16 40.2 142.42 40.2C142.614 40.2 142.79 40.17 142.95 40.11C143.11 40.0433 143.247 39.9533 143.36 39.84C143.48 39.7267 143.574 39.59 143.64 39.43C143.707 39.27 143.74 39.0967 143.74 38.91V35.75H144.77V41H143.74V39.9L143.92 39.78C143.84 40.0267 143.704 40.25 143.51 40.45C143.324 40.65 143.1 40.81 142.84 40.93C142.58 41.0433 142.3 41.1 142 41.1ZM149.275 41.1C149.048 41.1 148.822 41.0633 148.595 40.99C148.375 40.9167 148.172 40.82 147.985 40.7C147.805 40.5733 147.652 40.4367 147.525 40.29C147.405 40.1367 147.325 39.9833 147.285 39.83L147.545 39.69V40.97H146.515V33.6H147.545V36.95L147.385 36.86C147.418 36.7067 147.492 36.56 147.605 36.42C147.718 36.2733 147.862 36.1433 148.035 36.03C148.215 35.91 148.408 35.8167 148.615 35.75C148.822 35.6767 149.032 35.64 149.245 35.64C149.718 35.64 150.138 35.7567 150.505 35.99C150.872 36.2233 151.162 36.5467 151.375 36.96C151.588 37.3667 151.695 37.8333 151.695 38.36C151.695 38.8867 151.588 39.3567 151.375 39.77C151.168 40.1833 150.882 40.51 150.515 40.75C150.148 40.9833 149.735 41.1 149.275 41.1ZM149.105 40.16C149.412 40.16 149.685 40.0833 149.925 39.93C150.165 39.77 150.355 39.5567 150.495 39.29C150.635 39.0167 150.705 38.7067 150.705 38.36C150.705 38.02 150.635 37.7167 150.495 37.45C150.362 37.1767 150.175 36.9633 149.935 36.81C149.695 36.6567 149.418 36.58 149.105 36.58C148.792 36.58 148.515 36.6567 148.275 36.81C148.035 36.9633 147.845 37.1767 147.705 37.45C147.565 37.7167 147.495 38.02 147.495 38.36C147.495 38.7067 147.565 39.0167 147.705 39.29C147.845 39.5567 148.035 39.77 148.275 39.93C148.515 40.0833 148.792 40.16 149.105 40.16ZM158.396 42.86C157.583 42.3533 156.963 41.72 156.536 40.96C156.11 40.2 155.896 39.3533 155.896 38.42C155.896 37.4933 156.11 36.65 156.536 35.89C156.97 35.1233 157.593 34.4867 158.406 33.98L158.956 34.6C158.276 35.0733 157.756 35.64 157.396 36.3C157.043 36.9533 156.866 37.66 156.866 38.42C156.866 39.18 157.043 39.89 157.396 40.55C157.756 41.2033 158.276 41.7667 158.956 42.24L158.396 42.86ZM160.043 41V39.968H160.979V36.432H160.043V35.4H163.115V36.432H162.179V39.968H163.115V41H160.043ZM167.008 41.08C166.597 41.08 166.218 41.0107 165.872 40.872C165.53 40.728 165.232 40.528 164.976 40.272C164.725 40.0107 164.53 39.704 164.392 39.352C164.253 38.9947 164.184 38.6053 164.184 38.184C164.184 37.7733 164.256 37.3947 164.4 37.048C164.544 36.696 164.746 36.392 165.008 36.136C165.269 35.8747 165.576 35.672 165.928 35.528C166.28 35.384 166.661 35.312 167.072 35.312C167.338 35.312 167.6 35.3493 167.856 35.424C168.117 35.4933 168.354 35.5973 168.568 35.736C168.786 35.8747 168.973 36.04 169.128 36.232L168.376 37.064C168.248 36.936 168.114 36.8267 167.976 36.736C167.842 36.64 167.698 36.568 167.544 36.52C167.394 36.4667 167.234 36.44 167.064 36.44C166.834 36.44 166.618 36.4827 166.416 36.568C166.218 36.6533 166.045 36.7733 165.896 36.928C165.746 37.0773 165.626 37.2613 165.536 37.48C165.45 37.6933 165.408 37.9307 165.408 38.192C165.408 38.4587 165.45 38.7013 165.536 38.92C165.621 39.1333 165.741 39.3173 165.896 39.472C166.05 39.6213 166.234 39.7387 166.448 39.824C166.666 39.904 166.906 39.944 167.168 39.944C167.338 39.944 167.504 39.92 167.664 39.872C167.824 39.824 167.97 39.7573 168.104 39.672C168.242 39.5867 168.365 39.488 168.472 39.376L169.056 40.312C168.928 40.456 168.754 40.5867 168.536 40.704C168.322 40.8213 168.082 40.9147 167.816 40.984C167.549 41.048 167.28 41.08 167.008 41.08ZM173.835 41V35.4H175.035V41H173.835ZM170.307 41V35.4H171.507V41H170.307ZM170.787 38.752L170.795 37.664H174.451V38.752H170.787ZM176.757 42.86L176.207 42.24C176.887 41.7667 177.403 41.2033 177.757 40.55C178.117 39.89 178.297 39.18 178.297 38.42C178.297 37.66 178.117 36.9533 177.757 36.3C177.403 35.64 176.887 35.0733 176.207 34.6L176.767 33.98C177.58 34.4867 178.2 35.12 178.627 35.88C179.053 36.64 179.267 37.4867 179.267 38.42C179.267 39.3467 179.05 40.1933 178.617 40.96C178.19 41.72 177.57 42.3533 176.757 42.86Z" fill="white"/>
</svg>
