<svg width="12" height="25" viewBox="0 0 12 25" fill="none" xmlns="http://www.w3.org/2000/svg">
<g filter="url(#filter0_d_1136_201)">
<path d="M6.00003 9.43781C6.55234 9.43781 7.00007 9.01806 7.00007 8.50027C7.00007 7.98249 6.55234 7.56274 6.00003 7.56274C5.44773 7.56274 5 7.98249 5 8.50027C5 9.01806 5.44773 9.43781 6.00003 9.43781Z" stroke="#2B2B2B" stroke-width="2" stroke-linecap="round" stroke-linejoin="round"/>
<path d="M6.00003 2.87506C6.55234 2.87506 7.00007 2.45531 7.00007 1.93753C7.00007 1.41975 6.55234 1 6.00003 1C5.44773 1 5 1.41975 5 1.93753C5 2.45531 5.44773 2.87506 6.00003 2.87506Z" stroke="#2B2B2B" stroke-width="2" stroke-linecap="round" stroke-linejoin="round"/>
<path d="M6.00003 16.0005C6.55234 16.0005 7.00007 15.5808 7.00007 15.063C7.00007 14.5452 6.55234 14.1255 6.00003 14.1255C5.44773 14.1255 5 14.5452 5 15.063C5 15.5808 5.44773 16.0005 6.00003 16.0005Z" stroke="#2B2B2B" stroke-width="2" stroke-linecap="round" stroke-linejoin="round"/>
</g>
<defs>
<filter id="filter0_d_1136_201" x="0" y="0" width="12.0001" height="25.0005" filterUnits="userSpaceOnUse" color-interpolation-filters="sRGB">
<feFlood flood-opacity="0" result="BackgroundImageFix"/>
<feColorMatrix in="SourceAlpha" type="matrix" values="0 0 0 0 0 0 0 0 0 0 0 0 0 0 0 0 0 0 127 0" result="hardAlpha"/>
<feOffset dy="4"/>
<feGaussianBlur stdDeviation="2"/>
<feComposite in2="hardAlpha" operator="out"/>
<feColorMatrix type="matrix" values="0 0 0 0 0 0 0 0 0 0 0 0 0 0 0 0 0 0 0.25 0"/>
<feBlend mode="normal" in2="BackgroundImageFix" result="effect1_dropShadow_1136_201"/>
<feBlend mode="normal" in="SourceGraphic" in2="effect1_dropShadow_1136_201" result="shape"/>
</filter>
</defs>
</svg>
