<svg width="18" height="18" viewBox="0 0 18 18" fill="none" xmlns="http://www.w3.org/2000/svg">
<path d="M9 0C13.968 0 18 4.032 18 9C18 13.968 13.968 18 9 18C4.032 18 0 13.968 0 9C0 4.032 4.032 0 9 0ZM3.6207 12.0744C4.9419 14.0454 6.9255 15.3 9.144 15.3C11.3616 15.3 13.3461 14.0463 14.6664 12.0744C13.1686 10.6745 11.1942 9.89713 9.144 9.9C7.09354 9.8969 5.11876 10.6743 3.6207 12.0744ZM9 8.1C9.71608 8.1 10.4028 7.81554 10.9092 7.30919C11.4155 6.80284 11.7 6.11608 11.7 5.4C11.7 4.68392 11.4155 3.99716 10.9092 3.49081C10.4028 2.98446 9.71608 2.7 9 2.7C8.28392 2.7 7.59716 2.98446 7.09081 3.49081C6.58446 3.99716 6.3 4.68392 6.3 5.4C6.3 6.11608 6.58446 6.80284 7.09081 7.30919C7.59716 7.81554 8.28392 8.1 9 8.1Z" fill="#545660"/>
</svg>
