<svg width="13" height="14" viewBox="0 0 13 14" fill="none" xmlns="http://www.w3.org/2000/svg">
<path d="M12.8023 12.7518L9.59762 9.28631C10.4216 8.26788 10.8731 6.98648 10.8731 5.65249C10.8731 2.53576 8.4342 0 5.43654 0C2.43888 0 0 2.53576 0 5.65249C0 8.76923 2.43888 11.305 5.43654 11.305C6.5619 11.305 7.63432 10.9521 8.5512 10.2821L11.7803 13.7739C11.9152 13.9196 12.0968 14 12.2913 14C12.4754 14 12.6501 13.927 12.7827 13.7943C13.0645 13.5124 13.0735 13.045 12.8023 12.7518ZM5.43654 1.47456C7.65229 1.47456 9.45485 3.34873 9.45485 5.65249C9.45485 7.95625 7.65229 9.83043 5.43654 9.83043C3.2208 9.83043 1.41823 7.95625 1.41823 5.65249C1.41823 3.34873 3.2208 1.47456 5.43654 1.47456Z" fill="#9F9F9F"/>
</svg>
