<svg width="222" height="56" viewBox="0 0 222 56" fill="none" xmlns="http://www.w3.org/2000/svg">
<path d="M25.3713 0L19.8237 27.8863L25.3713 55.7356H30.0684L24.5207 27.8863L30.0684 0H25.3713Z" fill="white"/>
<path d="M14.8678 0L0 27.8863L14.8308 55.7356H19.9716L5.10386 27.8863L19.9716 0H14.8678Z" fill="white"/>
<path d="M36.0229 0L41.6076 27.8863L36.0599 55.7356H40.757L46.3046 27.8863L40.72 0H36.0229Z" fill="white"/>
<path d="M46.1197 0L61.0244 27.8863L46.1567 55.7356H51.2975L66.1283 27.8863L51.2605 0H46.1197Z" fill="white"/>
<path d="M203.23 24.262L208.371 11.3914L213.549 24.262H203.23ZM201.751 28.0344H214.991L217.469 34.3957H221.907L210.923 7.28607H205.893L194.871 34.3957H199.236L201.751 28.0344ZM189.546 7.32306H185.292V34.4327H189.546V7.32306ZM176.527 34.3957V7.28607H170.61L161.992 28.2563H161.955L153.19 7.28607H147.42V34.3957H151.6V14.1652H151.71L160.143 34.3957H163.767L172.237 14.0912H172.311V34.3957H176.527ZM122.641 7.32306V34.4327H140.097V30.5493H126.857V22.5607H138.803V18.6773H126.857V11.1694H139.986V7.28607H122.641V7.32306ZM111.212 20.8964C111.212 22.7456 110.769 24.5209 109.733 26.2221C109.178 27.0358 108.513 27.7755 107.773 28.4042C106.256 29.6247 103.852 30.4754 101.116 30.4754H96.8623V11.2434H101.153C103.889 11.2434 106.293 12.0941 107.81 13.3885C110.103 15.4227 111.286 18.3444 111.212 20.8964ZM115.688 20.8964C115.688 18.4554 114.948 15.6816 113.321 13.2036C112.248 11.5763 110.621 10.0969 108.66 8.98736C106.737 7.95179 104.111 7.32306 101.226 7.32306H92.6461V34.4327H101.3C105.184 34.4327 108.513 33.2492 110.695 31.4739C114.023 28.7371 115.762 24.6318 115.688 20.8964ZM83.8438 7.32306H79.5905V34.4327H83.8438V7.32306Z" fill="white"/>
<path d="M83.6845 51.9802C83.1138 51.9802 82.5888 51.8751 82.1094 51.6648C81.63 51.4464 81.2153 51.1431 80.8653 50.7549C80.5153 50.3586 80.2414 49.8936 80.0435 49.3598C79.8533 48.826 79.7581 48.2437 79.7581 47.6129C79.7581 46.9901 79.8533 46.4199 80.0435 45.9023C80.2414 45.3766 80.519 44.9197 80.8767 44.5315C81.2344 44.1352 81.649 43.8319 82.1208 43.6216C82.5926 43.4113 83.11 43.3062 83.6731 43.3062C84.0459 43.3062 84.415 43.3709 84.7802 43.5003C85.1454 43.6216 85.4803 43.7915 85.7846 44.0098C86.0966 44.2282 86.3515 44.4789 86.5493 44.762L85.933 45.4413C85.7428 45.1987 85.5221 44.9884 85.271 44.8105C85.0275 44.6326 84.7688 44.4951 84.4949 44.398C84.2209 44.301 83.947 44.2524 83.6731 44.2524C83.2469 44.2524 82.8474 44.3374 82.4746 44.5072C82.1094 44.669 81.7936 44.8995 81.5273 45.1987C81.2609 45.4979 81.0517 45.8538 80.8995 46.2663C80.755 46.6787 80.6827 47.1276 80.6827 47.6129C80.6827 48.1143 80.755 48.5753 80.8995 48.9958C81.0517 49.4164 81.2648 49.7803 81.5387 50.0877C81.8202 50.3869 82.1475 50.6215 82.5203 50.7913C82.9008 50.9531 83.3231 51.0339 83.7872 51.0339C84.0611 51.0339 84.3351 50.9934 84.609 50.9126C84.8829 50.8236 85.134 50.7023 85.3623 50.5487C85.5906 50.395 85.7846 50.2211 85.9444 50.027L86.401 50.8156C86.2259 51.042 85.9901 51.2442 85.6933 51.4221C85.4041 51.592 85.0845 51.7295 84.7346 51.8346C84.3846 51.9317 84.0345 51.9802 83.6845 51.9802ZM91.5233 51.9802C90.9297 51.9802 90.4009 51.8387 89.9367 51.5556C89.4802 51.2725 89.1188 50.8803 88.8524 50.3788C88.5938 49.8774 88.4644 49.3072 88.4644 48.6683C88.4644 48.0375 88.5938 47.4753 88.8524 46.982C89.1188 46.4887 89.4802 46.1005 89.9367 45.8174C90.4009 45.5343 90.9297 45.3928 91.5233 45.3928C92.1092 45.3928 92.6304 45.5343 93.0869 45.8174C93.5511 46.1005 93.9126 46.4887 94.1713 46.982C94.4376 47.4753 94.5707 48.0375 94.5707 48.6683C94.5707 49.3072 94.4376 49.8774 94.1713 50.3788C93.9126 50.8803 93.5511 51.2725 93.0869 51.5556C92.6304 51.8387 92.1092 51.9802 91.5233 51.9802ZM91.5233 51.1188C91.9417 51.1188 92.3146 51.0137 92.6418 50.8034C92.969 50.5851 93.2239 50.2939 93.4065 49.93C93.5891 49.558 93.6805 49.1373 93.6805 48.6683C93.6805 48.1992 93.5891 47.7827 93.4065 47.4188C93.2239 47.0548 92.969 46.7717 92.6418 46.5696C92.3146 46.3592 91.9417 46.2541 91.5233 46.2541C91.1048 46.2541 90.7281 46.3592 90.3933 46.5696C90.0661 46.7717 89.8074 47.0589 89.6172 47.4309C89.4345 47.7948 89.3471 48.2073 89.3546 48.6683C89.3471 49.1373 89.4345 49.558 89.6172 49.93C89.8074 50.2939 90.0661 50.5851 90.3933 50.8034C90.7281 51.0137 91.1048 51.1188 91.5233 51.1188ZM96.961 51.8589V45.5262H97.8056L97.8398 46.8486L97.7029 46.9092C97.779 46.6343 97.9274 46.3835 98.148 46.1571C98.3687 45.9307 98.6312 45.7487 98.9356 45.6112C99.2476 45.4656 99.5672 45.3928 99.8943 45.3928C100.336 45.3928 100.705 45.4858 101.001 45.6718C101.298 45.8579 101.523 46.145 101.675 46.5332C101.827 46.9214 101.903 47.4147 101.903 48.0132V51.8589H101.036V48.0617C101.036 47.6412 100.982 47.2974 100.876 47.0305C100.777 46.7556 100.621 46.5533 100.408 46.424C100.195 46.2946 99.9324 46.234 99.6204 46.242C99.3617 46.242 99.122 46.2905 98.9013 46.3876C98.6807 46.4766 98.4904 46.6019 98.3306 46.7637C98.1708 46.9254 98.0453 47.1114 97.954 47.3217C97.8627 47.532 97.817 47.7584 97.817 48.0011V51.8589H97.3947C97.3415 51.8589 97.2806 51.8589 97.2121 51.8589C97.1436 51.8589 97.06 51.8589 96.961 51.8589ZM104.679 51.8589V45.5262H105.523L105.557 46.8486L105.42 46.9092C105.496 46.6343 105.645 46.3835 105.866 46.1571C106.087 45.9307 106.349 45.7487 106.653 45.6112C106.965 45.4656 107.285 45.3928 107.612 45.3928C108.053 45.3928 108.422 45.4858 108.719 45.6718C109.016 45.8579 109.24 46.145 109.392 46.5332C109.545 46.9214 109.621 47.4147 109.621 48.0132V51.8589H108.753V48.0617C108.753 47.6412 108.7 47.2974 108.593 47.0305C108.495 46.7556 108.338 46.5533 108.126 46.424C107.913 46.2946 107.65 46.234 107.338 46.242C107.08 46.242 106.84 46.2905 106.619 46.3876C106.398 46.4766 106.208 46.6019 106.048 46.7637C105.888 46.9254 105.763 47.1114 105.672 47.3217C105.58 47.532 105.535 47.7584 105.535 48.0011V51.8589H105.112C105.059 51.8589 104.998 51.8589 104.93 51.8589C104.861 51.8589 104.778 51.8589 104.679 51.8589ZM115.022 51.9802C114.428 51.9802 113.899 51.8426 113.435 51.5677C112.978 51.2928 112.62 50.9085 112.362 50.4152C112.104 49.9219 111.974 49.3557 111.974 48.7168C111.974 48.2235 112.047 47.7786 112.191 47.3824C112.335 46.9779 112.537 46.6261 112.796 46.3269C113.062 46.0277 113.378 45.7972 113.743 45.6354C114.108 45.4656 114.504 45.3807 114.93 45.3807C115.334 45.3807 115.699 45.4575 116.026 45.6112C116.361 45.7648 116.646 45.9792 116.882 46.2541C117.126 46.521 117.308 46.8405 117.43 47.2125C117.551 47.5845 117.605 47.993 117.59 48.4378L117.578 48.8624H112.613L112.488 48.0981H116.928L116.722 48.3043V48.0132C116.707 47.722 116.627 47.443 116.482 47.1761C116.338 46.9012 116.133 46.6787 115.866 46.5089C115.608 46.3391 115.295 46.2541 114.93 46.2541C114.504 46.2541 114.135 46.3471 113.823 46.5332C113.511 46.711 113.271 46.9779 113.104 47.3338C112.937 47.6897 112.853 48.1304 112.853 48.6562C112.853 49.1576 112.944 49.5944 113.127 49.9664C113.309 50.3303 113.568 50.6134 113.903 50.8156C114.245 51.0177 114.656 51.1188 115.136 51.1188C115.417 51.1188 115.695 51.0703 115.969 50.9733C116.25 50.8682 116.558 50.6659 116.893 50.3667L117.339 51.0218C117.163 51.2078 116.955 51.3736 116.711 51.5192C116.467 51.6567 116.201 51.7699 115.912 51.8589C115.622 51.9397 115.326 51.9802 115.022 51.9802ZM122.458 51.9802C121.895 51.9802 121.392 51.8387 120.951 51.5556C120.509 51.2644 120.16 50.8721 119.901 50.3788C119.65 49.8774 119.525 49.3113 119.525 48.6804C119.525 48.0496 119.65 47.4875 119.901 46.9942C120.16 46.4927 120.509 46.1005 120.951 45.8174C121.392 45.5343 121.899 45.3928 122.47 45.3928C122.979 45.3928 123.443 45.502 123.862 45.7203C124.28 45.9307 124.615 46.2258 124.866 46.6059L124.364 47.261C124.219 47.0589 124.045 46.8809 123.839 46.7273C123.641 46.5736 123.424 46.4563 123.189 46.3754C122.96 46.2864 122.732 46.242 122.504 46.242C122.1 46.242 121.739 46.3512 121.419 46.5696C121.1 46.7799 120.845 47.0669 120.655 47.4309C120.472 47.7948 120.381 48.2114 120.381 48.6804C120.381 49.1495 120.472 49.5701 120.655 49.9421C120.845 50.306 121.1 50.5931 121.419 50.8034C121.739 51.0137 122.096 51.1188 122.492 51.1188C122.721 51.1188 122.945 51.0824 123.166 51.0097C123.386 50.9288 123.595 50.8156 123.794 50.67C123.991 50.5244 124.173 50.3424 124.341 50.1241L124.844 50.7792C124.584 51.1431 124.239 51.4343 123.805 51.6526C123.371 51.871 122.922 51.9802 122.458 51.9802ZM127.918 51.8589V43.8642H128.774V51.8589H127.918ZM126.571 46.3997V45.5262H130.281V46.3997H126.571ZM132.701 51.8589V45.5262H133.557V51.8589H132.701ZM133.124 44.1554C132.911 44.1554 132.747 44.0988 132.633 43.9856C132.526 43.8642 132.473 43.7025 132.473 43.5003C132.473 43.2981 132.53 43.1364 132.644 43.015C132.759 42.8937 132.918 42.8331 133.124 42.8331C133.329 42.8331 133.489 42.8937 133.603 43.015C133.717 43.1283 133.774 43.29 133.774 43.5003C133.774 43.6944 133.717 43.8521 133.603 43.9734C133.489 44.0947 133.329 44.1554 133.124 44.1554ZM138.418 51.8589L135.907 45.5262H136.854L138.84 50.7064L138.612 50.8398L140.792 45.5262H141.705L139.034 51.8589H138.418ZM144.079 51.8589V45.5262H144.935V51.8589H144.079ZM144.501 44.1554C144.289 44.1554 144.125 44.0988 144.01 43.9856C143.905 43.8642 143.851 43.7025 143.851 43.5003C143.851 43.2981 143.908 43.1364 144.022 43.015C144.136 42.8937 144.296 42.8331 144.501 42.8331C144.707 42.8331 144.866 42.8937 144.981 43.015C145.095 43.1283 145.152 43.29 145.152 43.5003C145.152 43.6944 145.095 43.8521 144.981 43.9734C144.866 44.0947 144.707 44.1554 144.501 44.1554ZM148.768 51.8589V43.8642H149.624V51.8589H148.768ZM147.421 46.3997V45.5262H151.131V46.3997H147.421ZM154.327 54.6491L155.48 51.6648L155.56 52.5261L152.57 45.5262H153.54L155.583 50.3788C155.644 50.5082 155.705 50.6619 155.766 50.8398C155.827 51.0097 155.884 51.1795 155.937 51.3493L155.617 51.3129C155.671 51.1754 155.72 51.0339 155.766 50.8883C155.82 50.7428 155.868 50.6013 155.914 50.4637L157.706 45.5262H158.688L156.279 51.8589L155.252 54.6491H154.327ZM170.753 51.8589V43.3668H171.643V51.8589H170.753ZM165.411 51.8589V43.3668H166.302V51.8589H165.411ZM165.845 48.086V47.164H171.13V48.086H165.845ZM176.905 51.9802C176.448 51.9802 176.06 51.8831 175.741 51.689C175.428 51.4869 175.189 51.1957 175.022 50.8156C174.862 50.4354 174.782 49.9623 174.782 49.3962V45.5262H175.649V49.2142C175.649 49.6429 175.702 50.0028 175.809 50.2939C175.923 50.577 176.09 50.7913 176.311 50.9369C176.54 51.0824 176.817 51.1552 177.145 51.1552C177.396 51.1552 177.627 51.1108 177.841 51.0218C178.054 50.9247 178.24 50.7954 178.4 50.6336C178.56 50.4718 178.685 50.2818 178.777 50.0634C178.868 49.845 178.914 49.6145 178.914 49.3719V45.5262H179.77V51.8589H178.925L178.891 50.5244L179.028 50.4516C178.937 50.7347 178.784 50.9934 178.571 51.228C178.358 51.4544 178.103 51.6364 177.807 51.7739C177.517 51.9115 177.216 51.9802 176.905 51.9802ZM185.602 51.9802C185.321 51.9802 185.047 51.9357 184.78 51.8467C184.514 51.7497 184.271 51.6203 184.05 51.4585C183.837 51.2967 183.655 51.1108 183.502 50.9005C183.358 50.6902 183.258 50.4718 183.205 50.2454L183.456 50.2575L183.422 51.8467H182.578V42.8816H183.434V47.0427L183.262 47.0912C183.315 46.8648 183.411 46.6504 183.548 46.4482C183.692 46.2379 183.871 46.0559 184.084 45.9023C184.297 45.7405 184.529 45.6152 184.78 45.5262C185.039 45.4372 185.305 45.3928 185.579 45.3928C186.112 45.3928 186.588 45.5343 187.006 45.8174C187.433 46.1005 187.771 46.4887 188.022 46.982C188.273 47.4753 188.399 48.0415 188.399 48.6804C188.399 49.3193 188.277 49.8895 188.033 50.391C187.79 50.8843 187.455 51.2725 187.029 51.5556C186.611 51.8387 186.135 51.9802 185.602 51.9802ZM185.465 51.1188C185.869 51.1188 186.226 51.0137 186.538 50.8034C186.85 50.5851 187.093 50.2939 187.269 49.93C187.451 49.558 187.543 49.1414 187.543 48.6804C187.543 48.2114 187.451 47.7948 187.269 47.4309C187.093 47.0669 186.85 46.7799 186.538 46.5696C186.226 46.3592 185.869 46.2541 185.465 46.2541C185.062 46.2541 184.705 46.3592 184.392 46.5696C184.08 46.7799 183.833 47.0669 183.65 47.4309C183.475 47.7948 183.388 48.2114 183.388 48.6804C183.388 49.1495 183.475 49.5701 183.65 49.9421C183.833 50.306 184.08 50.5931 184.392 50.8034C184.705 51.0137 185.062 51.1188 185.465 51.1188ZM197.489 54.1153C196.56 53.5007 195.853 52.7323 195.366 51.8103C194.878 50.8883 194.636 49.8613 194.636 48.7289C194.636 47.6048 194.878 46.5817 195.366 45.6597C195.86 44.7297 196.572 43.9572 197.501 43.3426L197.969 43.9128C197.154 44.5193 196.53 45.2351 196.097 46.06C195.67 46.8769 195.457 47.7665 195.457 48.7289C195.457 49.6914 195.67 50.5851 196.097 51.41C196.53 52.2269 197.154 52.9386 197.969 53.5451L197.489 54.1153ZM200.123 51.8589V50.9766H201.061V46.5651H200.123V45.6829H202.895V46.5651H201.957V50.9766H202.895V51.8589H200.123ZM207.368 51.9471C206.965 51.9471 206.594 51.8707 206.256 51.7177C205.919 51.5647 205.625 51.3471 205.376 51.0648C205.127 50.7766 204.934 50.4384 204.795 50.0502C204.662 49.662 204.596 49.2355 204.596 48.7709C204.596 48.3297 204.668 47.9209 204.812 47.5445C204.961 47.1621 205.166 46.8268 205.426 46.5387C205.686 46.2505 205.988 46.0269 206.331 45.8681C206.674 45.7093 207.045 45.6299 207.443 45.6299C207.725 45.6299 207.999 45.677 208.265 45.7711C208.537 45.8593 208.779 45.9858 208.995 46.1505C209.217 46.3093 209.397 46.4916 209.535 46.6975L208.937 47.3592C208.777 47.1886 208.613 47.0474 208.447 46.9357C208.288 46.818 208.122 46.7298 207.949 46.671C207.783 46.6122 207.615 46.5828 207.443 46.5828C207.172 46.5828 206.918 46.6387 206.679 46.7504C206.447 46.8563 206.242 47.0063 206.065 47.2004C205.894 47.3945 205.758 47.6269 205.658 47.8974C205.559 48.1621 205.509 48.4532 205.509 48.7709C205.509 49.1061 205.557 49.412 205.65 49.6884C205.75 49.959 205.889 50.1913 206.065 50.3854C206.242 50.5795 206.453 50.7295 206.696 50.8354C206.945 50.9354 207.219 50.9854 207.518 50.9854C207.7 50.9854 207.881 50.9589 208.057 50.906C208.235 50.8531 208.401 50.7766 208.555 50.6766C208.711 50.5766 208.852 50.459 208.979 50.3237L209.427 51.1001C209.3 51.2589 209.126 51.403 208.904 51.5324C208.688 51.6618 208.445 51.7648 208.173 51.8412C207.908 51.9118 207.64 51.9471 207.368 51.9471ZM215.269 51.8589V45.6829H216.165V51.8589H215.269ZM211.475 51.8589V45.6829H212.372V51.8589H211.475ZM211.865 49.2385V48.3209H215.667V49.2385H211.865ZM218.686 54.1153L218.218 53.5451C219.031 52.9386 219.652 52.2269 220.078 51.41C220.503 50.5851 220.717 49.6914 220.717 48.7289C220.717 47.7665 220.503 46.8769 220.078 46.06C219.652 45.2351 219.031 44.5193 218.218 43.9128L218.697 43.3426C219.625 43.9572 220.332 44.7256 220.82 45.6476C221.307 46.5696 221.55 47.5966 221.55 48.7289C221.55 49.8531 221.302 50.8803 220.809 51.8103C220.321 52.7323 219.613 53.5007 218.686 54.1153Z" fill="white"/>
</svg>
