<svg width="14" height="12" viewBox="0 0 14 12" fill="none" xmlns="http://www.w3.org/2000/svg">
<path d="M8.19522 5.03804L10.7478 8.63665H2.68696L4.70217 5.82974L6.11283 7.77298L8.06087 5.03804H8.19522ZM4.3663 5.03804C4.9037 5.03804 5.37391 4.53424 5.37391 3.95846C5.37391 3.38269 4.9037 2.87888 4.3663 2.87888C3.82891 2.87888 3.3587 3.38269 3.3587 3.95846C3.3587 4.53424 3.82891 5.03804 4.3663 5.03804ZM13.4348 1.43944V10.0761C13.4348 10.8678 12.8302 11.5155 12.0913 11.5155H1.34348C0.604565 11.5155 0 10.8678 0 10.0761V1.43944C0 0.647748 0.604565 0 1.34348 0H12.0913C12.8302 0 13.4348 0.647748 13.4348 1.43944ZM12.0913 3.45466V1.43944H1.34348V10.0761H12.0913V3.45466Z" fill="#4D5469"/>
</svg>
