<svg width="15" height="15" viewBox="0 0 15 15" fill="none" xmlns="http://www.w3.org/2000/svg">
<path d="M12.6494 0.48105C12.3411 0.172741 11.9235 0 11.4883 0H2.04665C1.44315 0 0.953354 0.489796 0.953354 1.09329V13.9067C0.953354 14.5102 1.44315 15 2.04665 15H12.9534C13.5569 15 14.0467 14.5102 14.0467 13.9067V2.55831C14.0467 2.12318 13.8739 1.70773 13.5678 1.39942L12.6494 0.48105ZM12.5029 3.32799V4.12391H9.93586V2.23469H11.4118C12.0131 2.23469 12.5029 2.72449 12.5029 3.32799ZM12.5029 7.32507H9.93586V5.19534H12.5051V7.32507H12.5029ZM12.5029 10.5284H9.93586V8.3965H12.5051V10.5284H12.5029ZM2.49709 8.35277H5.1691V10.5722H2.49709V8.35277ZM2.49709 5.14942H5.1691V7.3688H2.49709V5.14942ZM2.49709 3.32799C2.49709 2.72449 2.98688 2.23469 3.59038 2.23469H5.1691V4.16764H2.49709V3.32799ZM2.49709 12.4242V11.5539H5.1691V13.5175H3.59257C2.98688 13.5175 2.49709 13.0277 2.49709 12.4242ZM6.26239 2.23469H8.84257V13.5175H6.26239V2.23469ZM12.5029 12.4242C12.5029 13.0277 12.0131 13.5175 11.4096 13.5175H9.93586V11.5999H12.5051V12.4242H12.5029Z" fill="#424242"/>
</svg>
