<svg width="15" height="15" viewBox="0 0 15 15" fill="none" xmlns="http://www.w3.org/2000/svg">
<path d="M4.17702 4.69843L6.57432 2.11965V9.88528C6.57432 10.216 6.84069 10.4824 7.17145 10.4824C7.50222 10.4824 7.76859 10.216 7.76859 9.88528V2.11965L10.1659 4.69843C10.3913 4.94138 10.7689 4.95309 11.0118 4.73063C11.2548 4.50524 11.2665 4.12765 11.044 3.8847L7.61052 0.190679C7.2739 -0.148866 6.86118 0.0384688 6.73532 0.190679L3.30181 3.8847C3.07642 4.12765 3.09106 4.50524 3.33401 4.73063C3.57403 4.95309 3.95163 4.94138 4.17702 4.69843Z" fill="white"/>
<path d="M13.7457 9.66577C13.415 9.66577 13.1486 9.93214 13.1486 10.2629V13.1432H1.19426V10.2629C1.19426 9.93214 0.927895 9.66577 0.597131 9.66577C0.266367 9.66577 0 9.93507 0 10.2629V13.7403C0 14.0711 0.266367 14.3374 0.597131 14.3374H13.7457C14.0765 14.3374 14.3429 14.0711 14.3429 13.7403V10.2629C14.3429 9.93507 14.0765 9.66577 13.7457 9.66577Z" fill="white"/>
</svg>
